<?xml version="1.0" encoding="UTF-8" standalone="no"?>
<!DOCTYPE svg PUBLIC "-//W3C//DTD SVG 1.1//EN"
 "http://www.w3.org/Graphics/SVG/1.1/DTD/svg11.dtd">
<!-- Generated by graphviz version 14.1.5 (20260411.2331)
 -->
<!-- Title: install_modes Pages: 1 -->
<svg width="1217pt" height="777pt"
 viewBox="0.00 0.00 1217.00 777.00" xmlns="http://www.w3.org/2000/svg" xmlns:xlink="http://www.w3.org/1999/xlink">
<g id="graph0" class="graph" transform="scale(1 1) rotate(0) translate(4 773.2)">
<title>install_modes</title>
<polygon fill="#faf8f5" stroke="none" points="-4,4 -4,-773.2 1212.65,-773.2 1212.65,4 -4,4"/>
<text xml:space="preserve" text-anchor="start" x="458.82" y="-749.1" font-family="EB Garamond" font-weight="bold" font-size="18.00" fill="#201436">murmurent · project install modes</text>
<text xml:space="preserve" text-anchor="start" x="470.45" y="-737.75" font-family="EB Garamond" font-size="11.00" fill="#201436">where does each artefact live? · local laptop vs lab-server</text>
<g id="clust1" class="cluster">
<title>cluster_local</title>
<path fill="#f1ece3" stroke="#4f2683" d="M415.51,-470.2C415.51,-470.2 1167.65,-470.2 1167.65,-470.2 1173.65,-470.2 1179.65,-476.2 1179.65,-482.2 1179.65,-482.2 1179.65,-712.2 1179.65,-712.2 1179.65,-718.2 1173.65,-724.2 1167.65,-724.2 1167.65,-724.2 415.51,-724.2 415.51,-724.2 409.51,-724.2 403.51,-718.2 403.51,-712.2 403.51,-712.2 403.51,-482.2 403.51,-482.2 403.51,-476.2 409.51,-470.2 415.51,-470.2"/>
<text xml:space="preserve" text-anchor="start" x="731.58" y="-709.8" font-family="EB Garamond" font-weight="bold" font-size="12.00" fill="#4f2683">Mode A · Local install</text>
<text xml:space="preserve" text-anchor="start" x="725.21" y="-700.65" font-family="EB Garamond" font-size="9.00" fill="#4f2683">simplest; default for new projects</text>
</g>
<g id="clust2" class="cluster">
<title>cluster_remote</title>
<path fill="#e1ebd6" stroke="#4f6b3a" d="M60.5,-98.2C60.5,-98.2 1188.65,-98.2 1188.65,-98.2 1194.65,-98.2 1200.65,-104.2 1200.65,-110.2 1200.65,-110.2 1200.65,-390.2 1200.65,-390.2 1200.65,-396.2 1194.65,-402.2 1188.65,-402.2 1188.65,-402.2 60.5,-402.2 60.5,-402.2 54.5,-402.2 48.5,-396.2 48.5,-390.2 48.5,-390.2 48.5,-110.2 48.5,-110.2 48.5,-104.2 54.5,-98.2 60.5,-98.2"/>
<text xml:space="preserve" text-anchor="start" x="553.7" y="-387.8" font-family="EB Garamond" font-weight="bold" font-size="12.00" fill="#4f6b3a">Mode B · lab-server install</text>
<text xml:space="preserve" text-anchor="start" x="516.57" y="-378.65" font-family="EB Garamond" font-size="9.00" fill="#4f6b3a">project + data + vault all on lab-server.example.edu</text>
</g>
<!-- github -->
<g id="node1" class="node">
<title>github</title>
<path fill="#eef2ff" stroke="#6f4da8" d="M1151.77,-457.8C1151.77,-460.45 1125.29,-462.6 1092.69,-462.6 1060.09,-462.6 1033.6,-460.45 1033.6,-457.8 1033.6,-457.8 1033.6,-414.6 1033.6,-414.6 1033.6,-411.95 1060.09,-409.8 1092.69,-409.8 1125.29,-409.8 1151.77,-411.95 1151.77,-414.6 1151.77,-414.6 1151.77,-457.8 1151.77,-457.8"/>
<path fill="none" stroke="#6f4da8" d="M1151.77,-457.8C1151.77,-455.15 1125.29,-453 1092.69,-453 1060.09,-453 1033.6,-455.15 1033.6,-457.8"/>
<text xml:space="preserve" text-anchor="middle" x="1092.69" y="-437.75" font-family="EB Garamond" font-size="11.00" fill="#1a1a1a">GitHub</text>
<text xml:space="preserve" text-anchor="middle" x="1092.69" y="-425.75" font-family="EB Garamond" font-size="11.00" fill="#1a1a1a">hallettmiket / &lt;org&gt;</text>
</g>
<!-- L_laptop -->
<g id="node2" class="node">
<title>L_laptop</title>
<path fill="none" stroke="none" d="M531.7,-514.2C531.7,-514.2 448.78,-514.2 448.78,-514.2 442.78,-514.2 436.78,-508.2 436.78,-502.2 436.78,-502.2 436.78,-490.2 436.78,-490.2 436.78,-484.2 442.78,-478.2 448.78,-478.2 448.78,-478.2 531.7,-478.2 531.7,-478.2 537.7,-478.2 543.7,-484.2 543.7,-490.2 543.7,-490.2 543.7,-502.2 543.7,-502.2 543.7,-508.2 537.7,-514.2 531.7,-514.2"/>
<text xml:space="preserve" text-anchor="start" x="449.74" y="-492.75" font-family="EB Garamond" font-weight="bold" font-size="11.00" fill="#1a1a1a">laptop (macOS)</text>
</g>
<!-- L_dashboard -->
<g id="node3" class="node">
<title>L_dashboard</title>
<path fill="#ffe9cc" stroke="#f0a757" d="M544.45,-588.4C544.45,-588.4 436.03,-588.4 436.03,-588.4 430.03,-588.4 424.03,-582.4 424.03,-576.4 424.03,-576.4 424.03,-562 424.03,-562 424.03,-556 430.03,-550 436.03,-550 436.03,-550 544.45,-550 544.45,-550 550.45,-550 556.45,-556 556.45,-562 556.45,-562 556.45,-576.4 556.45,-576.4 556.45,-582.4 550.45,-588.4 544.45,-588.4"/>
<text xml:space="preserve" text-anchor="middle" x="490.24" y="-570.75" font-family="EB Garamond" font-size="11.00" fill="#1a1a1a">murmurent dashboard</text>
<text xml:space="preserve" text-anchor="middle" x="490.24" y="-558.75" font-family="EB Garamond" font-size="11.00" fill="#1a1a1a">(uvicorn :8770)</text>
</g>
<!-- L_repo -->
<g id="node4" class="node">
<title>L_repo</title>
<path fill="#ffffff" stroke="#c7bfb1" d="M847.23,-608.4C847.23,-608.4 759.81,-608.4 759.81,-608.4 753.81,-608.4 747.81,-602.4 747.81,-596.4 747.81,-596.4 747.81,-582 747.81,-582 747.81,-576 753.81,-570 759.81,-570 759.81,-570 847.23,-570 847.23,-570 853.23,-570 859.23,-576 859.23,-582 859.23,-582 859.23,-596.4 859.23,-596.4 859.23,-602.4 853.23,-608.4 847.23,-608.4"/>
<text xml:space="preserve" text-anchor="middle" x="803.52" y="-590.75" font-family="EB Garamond" font-size="11.00" fill="#1a1a1a">~/repos/&lt;project&gt;</text>
<text xml:space="preserve" text-anchor="middle" x="803.52" y="-578.75" font-family="EB Garamond" font-size="11.00" fill="#1a1a1a">(working tree)</text>
</g>
<!-- L_dashboard&#45;&gt;L_repo -->
<g id="edge1" class="edge">
<title>L_dashboard&#45;&gt;L_repo</title>
<path fill="none" stroke="#5b5b5b" d="M556.87,-573.42C610.55,-576.87 685.98,-581.71 739.05,-585.12"/>
<polygon fill="#5b5b5b" stroke="#5b5b5b" points="738.72,-587.56 745.86,-585.56 739.03,-582.67 738.72,-587.56"/>
</g>
<!-- L_vault -->
<g id="node5" class="node">
<title>L_vault</title>
<path fill="#e9defa" stroke="#6f4da8" d="M878.73,-534.4C878.73,-534.4 728.31,-534.4 728.31,-534.4 722.31,-534.4 716.31,-528.4 716.31,-522.4 716.31,-522.4 716.31,-508 716.31,-508 716.31,-502 722.31,-496 728.31,-496 728.31,-496 878.73,-496 878.73,-496 884.73,-496 890.73,-502 890.73,-508 890.73,-508 890.73,-522.4 890.73,-522.4 890.73,-528.4 884.73,-534.4 878.73,-534.4"/>
<text xml:space="preserve" text-anchor="middle" x="803.52" y="-516.75" font-family="EB Garamond" font-size="11.00" fill="#1a1a1a">Obsidian vault</text>
<text xml:space="preserve" text-anchor="middle" x="803.52" y="-504.75" font-family="EB Garamond" font-size="11.00" fill="#1a1a1a">~/Documents/Obsidian/&lt;vault&gt;</text>
</g>
<!-- L_dashboard&#45;&gt;L_vault -->
<g id="edge4" class="edge">
<title>L_dashboard&#45;&gt;L_vault</title>
<path fill="none" stroke="#5b5b5b" d="M556.87,-557.81C600.63,-550.22 658.85,-540.12 707.62,-531.66"/>
<polygon fill="#5b5b5b" stroke="#5b5b5b" points="708.02,-534.08 714.5,-530.47 707.18,-529.25 708.02,-534.08"/>
<text xml:space="preserve" text-anchor="middle" x="658.56" y="-546.63" font-family="Courier Prime" font-size="9.00" fill="#5b5b5b">notebook</text>
</g>
<!-- L_repo&#45;&gt;github -->
<g id="edge10" class="edge">
<title>L_repo&#45;&gt;github</title>
<path fill="none" stroke="#5b5b5b" stroke-dasharray="5,2" d="M856.82,-569.69C868.32,-564.6 880.2,-558.7 890.73,-552.2 941.19,-521.06 940.62,-494.49 992.73,-466.2 1002.92,-460.67 1014.27,-456.02 1025.54,-452.15"/>
<polygon fill="#5b5b5b" stroke="#5b5b5b" points="1025.99,-454.59 1031.88,-450.08 1024.47,-449.93 1025.99,-454.59"/>
<text xml:space="preserve" text-anchor="middle" x="941.73" y="-535.21" font-family="Courier Prime" font-size="9.00" fill="#5b5b5b">git push</text>
</g>
<!-- L_lab_vm -->
<g id="node6" class="node">
<title>L_lab_vm</title>
<path fill="#ffffff" stroke="#c7bfb1" d="M1159.65,-608.4C1159.65,-608.4 1025.73,-608.4 1025.73,-608.4 1019.73,-608.4 1013.73,-602.4 1013.73,-596.4 1013.73,-596.4 1013.73,-582 1013.73,-582 1013.73,-576 1019.73,-570 1025.73,-570 1025.73,-570 1159.65,-570 1159.65,-570 1165.65,-570 1171.65,-576 1171.65,-582 1171.65,-582 1171.65,-596.4 1171.65,-596.4 1171.65,-602.4 1165.65,-608.4 1159.65,-608.4"/>
<text xml:space="preserve" text-anchor="middle" x="1092.69" y="-590.75" font-family="EB Garamond" font-size="11.00" fill="#1a1a1a">~/lab_vm/data/{raw,refined}</text>
<text xml:space="preserve" text-anchor="middle" x="1092.69" y="-578.75" font-family="EB Garamond" font-size="11.00" fill="#1a1a1a">(simulated)</text>
</g>
<!-- L_repo&#45;&gt;L_lab_vm -->
<g id="edge3" class="edge">
<title>L_repo&#45;&gt;L_lab_vm</title>
<path fill="none" stroke="#5b5b5b" d="M859.55,-589.2C900.65,-589.2 957.62,-589.2 1004.85,-589.2"/>
<polygon fill="#5b5b5b" stroke="#5b5b5b" points="1004.73,-591.65 1011.73,-589.2 1004.73,-586.75 1004.73,-591.65"/>
<text xml:space="preserve" text-anchor="middle" x="941.73" y="-590.4" font-family="Courier Prime" font-size="9.00" fill="#5b5b5b">reads / writes</text>
</g>
<!-- L_vscode -->
<g id="node7" class="node">
<title>L_vscode</title>
<path fill="#fff1db" stroke="#c7bfb1" d="M559.58,-663.68C559.58,-663.68 538.99,-680.08 538.99,-680.08 534.3,-683.82 523.6,-687.55 517.6,-687.55 517.6,-687.55 462.88,-687.55 462.88,-687.55 456.88,-687.55 446.18,-683.82 441.49,-680.08 441.49,-680.08 420.9,-663.68 420.9,-663.68 416.21,-659.94 416.21,-652.46 420.9,-648.72 420.9,-648.72 441.49,-632.32 441.49,-632.32 446.18,-628.58 456.88,-624.85 462.88,-624.85 462.88,-624.85 517.6,-624.85 517.6,-624.85 523.6,-624.85 534.3,-628.58 538.99,-632.32 538.99,-632.32 559.58,-648.72 559.58,-648.72 564.27,-652.46 564.27,-659.94 559.58,-663.68"/>
<text xml:space="preserve" text-anchor="middle" x="490.24" y="-657.75" font-family="EB Garamond" font-size="11.00" fill="#1a1a1a">VSCode + CC</text>
<text xml:space="preserve" text-anchor="middle" x="490.24" y="-645.75" font-family="EB Garamond" font-size="11.00" fill="#1a1a1a">(local)</text>
</g>
<!-- L_vscode&#45;&gt;L_repo -->
<g id="edge2" class="edge">
<title>L_vscode&#45;&gt;L_repo</title>
<path fill="none" stroke="#5b5b5b" d="M552.74,-642.96C606.67,-631.36 684.75,-614.55 739.21,-602.83"/>
<polygon fill="#5b5b5b" stroke="#5b5b5b" points="739.6,-605.25 745.93,-601.38 738.57,-600.46 739.6,-605.25"/>
</g>
<!-- R_laptop -->
<g id="node8" class="node">
<title>R_laptop</title>
<path fill="none" stroke="none" d="M178.42,-142.2C178.42,-142.2 95.5,-142.2 95.5,-142.2 89.5,-142.2 83.5,-136.2 83.5,-130.2 83.5,-130.2 83.5,-118.2 83.5,-118.2 83.5,-112.2 89.5,-106.2 95.5,-106.2 95.5,-106.2 178.42,-106.2 178.42,-106.2 184.42,-106.2 190.42,-112.2 190.42,-118.2 190.42,-118.2 190.42,-130.2 190.42,-130.2 190.42,-136.2 184.42,-142.2 178.42,-142.2"/>
<text xml:space="preserve" text-anchor="start" x="96.46" y="-120.75" font-family="EB Garamond" font-weight="bold" font-size="11.00" fill="#1a1a1a">laptop (macOS)</text>
</g>
<!-- R_dashboard -->
<g id="node9" class="node">
<title>R_dashboard</title>
<path fill="#ffe9cc" stroke="#f0a757" d="M191.17,-293.4C191.17,-293.4 82.75,-293.4 82.75,-293.4 76.75,-293.4 70.75,-287.4 70.75,-281.4 70.75,-281.4 70.75,-267 70.75,-267 70.75,-261 76.75,-255 82.75,-255 82.75,-255 191.17,-255 191.17,-255 197.17,-255 203.17,-261 203.17,-267 203.17,-267 203.17,-281.4 203.17,-281.4 203.17,-287.4 197.17,-293.4 191.17,-293.4"/>
<text xml:space="preserve" text-anchor="middle" x="136.96" y="-275.75" font-family="EB Garamond" font-size="11.00" fill="#1a1a1a">murmurent dashboard</text>
<text xml:space="preserve" text-anchor="middle" x="136.96" y="-263.75" font-family="EB Garamond" font-size="11.00" fill="#1a1a1a">(uvicorn :8770)</text>
</g>
<!-- R_murmurent -->
<g id="node16" class="node">
<title>R_murmurent</title>
<path fill="#ffffff" stroke="#c7bfb1" d="M557.57,-351.4C557.57,-351.4 422.9,-351.4 422.9,-351.4 416.9,-351.4 410.9,-345.4 410.9,-339.4 410.9,-339.4 410.9,-325 410.9,-325 410.9,-319 416.9,-313 422.9,-313 422.9,-313 557.57,-313 557.57,-313 563.57,-313 569.57,-319 569.57,-325 569.57,-325 569.57,-339.4 569.57,-339.4 569.57,-345.4 563.57,-351.4 557.57,-351.4"/>
<text xml:space="preserve" text-anchor="middle" x="490.24" y="-333.75" font-family="EB Garamond" font-size="11.00" fill="#1a1a1a">murmurent CLI on lab-server</text>
<text xml:space="preserve" text-anchor="middle" x="490.24" y="-321.75" font-family="EB Garamond" font-size="11.00" fill="#1a1a1a">(uv tool install)</text>
</g>
<!-- R_dashboard&#45;&gt;R_murmurent -->
<g id="edge5" class="edge">
<title>R_dashboard&#45;&gt;R_murmurent</title>
<path fill="none" stroke="#4f2683" stroke-width="2" d="M203.62,-285.04C259.78,-294.31 341.04,-307.73 402.54,-317.88"/>
<polygon fill="#4f2683" stroke="#4f2683" stroke-width="2" points="400.41,-320.02 407.71,-318.74 401.2,-315.18 400.41,-320.02"/>
<text xml:space="preserve" text-anchor="middle" x="326.8" y="-311.3" font-family="Courier Prime" font-size="9.00" fill="#5b5b5b">ssh lab-server &#160;</text>
</g>
<!-- R_vscode_remote -->
<g id="node10" class="node">
<title>R_vscode_remote</title>
<path fill="#fff1db" stroke="#c7bfb1" d="M590.37,-251.12C590.37,-251.12 555.96,-270.63 555.96,-270.63 550.74,-273.59 539.52,-276.55 533.52,-276.55 533.52,-276.55 446.95,-276.55 446.95,-276.55 440.95,-276.55 429.74,-273.59 424.52,-270.63 424.52,-270.63 390.11,-251.12 390.11,-251.12 384.89,-248.16 384.89,-242.24 390.11,-239.28 390.11,-239.28 424.52,-219.77 424.52,-219.77 429.74,-216.81 440.95,-213.85 446.95,-213.85 446.95,-213.85 533.52,-213.85 533.52,-213.85 539.52,-213.85 550.74,-216.81 555.96,-219.77 555.96,-219.77 590.37,-239.28 590.37,-239.28 595.59,-242.24 595.59,-248.16 590.37,-251.12"/>
<text xml:space="preserve" text-anchor="middle" x="490.24" y="-246.75" font-family="EB Garamond" font-size="11.00" fill="#1a1a1a">VSCode Remote&#45;SSH</text>
<text xml:space="preserve" text-anchor="middle" x="490.24" y="-234.75" font-family="EB Garamond" font-size="11.00" fill="#1a1a1a">client</text>
</g>
<!-- R_repo -->
<g id="node13" class="node">
<title>R_repo</title>
<path fill="#ffffff" stroke="#c7bfb1" d="M877.6,-351.4C877.6,-351.4 729.43,-351.4 729.43,-351.4 723.43,-351.4 717.43,-345.4 717.43,-339.4 717.43,-339.4 717.43,-325 717.43,-325 717.43,-319 723.43,-313 729.43,-313 729.43,-313 877.6,-313 877.6,-313 883.6,-313 889.6,-319 889.6,-325 889.6,-325 889.6,-339.4 889.6,-339.4 889.6,-345.4 883.6,-351.4 877.6,-351.4"/>
<text xml:space="preserve" text-anchor="middle" x="803.52" y="-333.75" font-family="EB Garamond" font-size="11.00" fill="#1a1a1a">/home/&lt;user&gt;/repos/&lt;project&gt;</text>
<text xml:space="preserve" text-anchor="middle" x="803.52" y="-321.75" font-family="EB Garamond" font-size="11.00" fill="#1a1a1a">(working tree)</text>
</g>
<!-- R_vscode_remote&#45;&gt;R_repo -->
<g id="edge6" class="edge">
<title>R_vscode_remote&#45;&gt;R_repo</title>
<path fill="none" stroke="#4f2683" stroke-width="2" d="M565.01,-265.82C612.95,-279.22 675.38,-296.66 724.2,-310.31"/>
<polygon fill="#4f2683" stroke="#4f2683" stroke-width="2" points="721.9,-312.21 729.31,-311.74 723.22,-307.49 721.9,-312.21"/>
<text xml:space="preserve" text-anchor="middle" x="658.56" y="-300.25" font-family="Courier Prime" font-size="9.00" fill="#5b5b5b">vscode&#45;remote://</text>
</g>
<!-- R_obs_local -->
<g id="node11" class="node">
<title>R_obs_local</title>
<path fill="#e9defa" stroke="#6f4da8" d="M196.42,-218.52C196.42,-218.52 77.5,-218.52 77.5,-218.52 71.5,-218.52 65.5,-212.52 65.5,-206.52 65.5,-206.52 65.5,-189.88 65.5,-189.88 65.5,-183.88 71.5,-177.88 77.5,-177.88 77.5,-177.88 196.42,-177.88 196.42,-177.88 202.42,-177.88 208.42,-183.88 208.42,-189.88 208.42,-189.88 208.42,-206.52 208.42,-206.52 208.42,-212.52 202.42,-218.52 196.42,-218.52"/>
<text xml:space="preserve" text-anchor="middle" x="136.96" y="-200.88" font-family="EB Garamond" font-size="11.00" fill="#1a1a1a">Obsidian (GUI)</text>
<text xml:space="preserve" text-anchor="middle" x="136.96" y="-188.88" font-family="EB Garamond" font-size="11.00" fill="#1a1a1a">→ opens SSHFS mount</text>
</g>
<!-- R_vault -->
<g id="node15" class="node">
<title>R_vault</title>
<path fill="#ffffff" stroke="#c7bfb1" d="M566.95,-166.4C566.95,-166.4 413.53,-166.4 413.53,-166.4 407.53,-166.4 401.53,-160.4 401.53,-154.4 401.53,-154.4 401.53,-140 401.53,-140 401.53,-134 407.53,-128 413.53,-128 413.53,-128 566.95,-128 566.95,-128 572.95,-128 578.95,-134 578.95,-140 578.95,-140 578.95,-154.4 578.95,-154.4 578.95,-160.4 572.95,-166.4 566.95,-166.4"/>
<text xml:space="preserve" text-anchor="middle" x="490.24" y="-148.75" font-family="EB Garamond" font-size="11.00" fill="#1a1a1a">/home/&lt;user&gt;/Obsidian/&lt;vault&gt;</text>
<text xml:space="preserve" text-anchor="middle" x="490.24" y="-136.75" font-family="EB Garamond" font-size="11.00" fill="#1a1a1a">(authoritative copy)</text>
</g>
<!-- R_obs_local&#45;&gt;R_vault -->
<g id="edge7" class="edge">
<title>R_obs_local&#45;&gt;R_vault</title>
<path fill="none" stroke="#4f2683" stroke-width="2" d="M208.62,-187.94C261.63,-180.25 334.78,-169.63 393.1,-161.16"/>
<polygon fill="#4f2683" stroke="#4f2683" stroke-width="2" points="391.66,-163.84 398.24,-160.41 390.96,-158.99 391.66,-163.84"/>
<text xml:space="preserve" text-anchor="middle" x="326.8" y="-175.43" font-family="Courier Prime" font-size="9.00" fill="#5b5b5b">SSHFS mount</text>
</g>
<!-- R_lab-server -->
<g id="node12" class="node">
<title>R_lab-server</title>
<path fill="none" stroke="none" d="M205.42,-365.2C205.42,-365.2 68.5,-365.2 68.5,-365.2 62.5,-365.2 56.5,-359.2 56.5,-353.2 56.5,-353.2 56.5,-341.2 56.5,-341.2 56.5,-335.2 62.5,-329.2 68.5,-329.2 68.5,-329.2 205.42,-329.2 205.42,-329.2 211.42,-329.2 217.42,-335.2 217.42,-341.2 217.42,-341.2 217.42,-353.2 217.42,-353.2 217.42,-359.2 211.42,-365.2 205.42,-365.2"/>
<text xml:space="preserve" text-anchor="start" x="69.46" y="-347.75" font-family="EB Garamond" font-weight="bold" font-size="11.00" fill="#1a1a1a">lab-server.example.edu</text>
<text xml:space="preserve" text-anchor="start" x="86.34" y="-338.65" font-family="EB Garamond" font-size="9.00" fill="#1a1a1a">Ubuntu · 203.0.113.10</text>
</g>
<!-- R_repo&#45;&gt;github -->
<g id="edge11" class="edge">
<title>R_repo&#45;&gt;github</title>
<path fill="none" stroke="#5b5b5b" stroke-dasharray="5,2" d="M851.31,-351.81C889.16,-367.37 943.98,-389.26 992.73,-406.2 1003.24,-409.85 1014.46,-413.49 1025.42,-416.92"/>
<polygon fill="#5b5b5b" stroke="#5b5b5b" points="1024.5,-419.19 1031.91,-418.92 1025.94,-414.51 1024.5,-419.19"/>
<text xml:space="preserve" text-anchor="middle" x="941.73" y="-398.16" font-family="Courier Prime" font-size="9.00" fill="#5b5b5b">git push</text>
</g>
<!-- R_lab_vm -->
<g id="node14" class="node">
<title>R_lab_vm</title>
<path fill="#ffffff" stroke="#c7bfb1" d="M1180.65,-351.4C1180.65,-351.4 1004.73,-351.4 1004.73,-351.4 998.73,-351.4 992.73,-345.4 992.73,-339.4 992.73,-339.4 992.73,-325 992.73,-325 992.73,-319 998.73,-313 1004.73,-313 1004.73,-313 1180.65,-313 1180.65,-313 1186.65,-313 1192.65,-319 1192.65,-325 1192.65,-325 1192.65,-339.4 1192.65,-339.4 1192.65,-345.4 1186.65,-351.4 1180.65,-351.4"/>
<text xml:space="preserve" text-anchor="middle" x="1092.69" y="-333.75" font-family="EB Garamond" font-size="11.00" fill="#1a1a1a">/data/lab_vm/{raw,refined}/&lt;project&gt;</text>
<text xml:space="preserve" text-anchor="middle" x="1092.69" y="-321.75" font-family="EB Garamond" font-size="11.00" fill="#1a1a1a">(real data plane)</text>
</g>
<!-- R_repo&#45;&gt;R_lab_vm -->
<g id="edge9" class="edge">
<title>R_repo&#45;&gt;R_lab_vm</title>
<path fill="none" stroke="#5b5b5b" d="M889.9,-332.2C919.42,-332.2 952.89,-332.2 983.97,-332.2"/>
<polygon fill="#5b5b5b" stroke="#5b5b5b" points="983.72,-334.65 990.72,-332.2 983.72,-329.75 983.72,-334.65"/>
<text xml:space="preserve" text-anchor="middle" x="941.73" y="-333.4" font-family="Courier Prime" font-size="9.00" fill="#5b5b5b">reads / writes</text>
</g>
<!-- R_murmurent&#45;&gt;R_repo -->
<g id="edge8" class="edge">
<title>R_murmurent&#45;&gt;R_repo</title>
<path fill="none" stroke="#5b5b5b" d="M569.79,-332.2C612,-332.2 664.34,-332.2 708.69,-332.2"/>
<polygon fill="#5b5b5b" stroke="#5b5b5b" points="708.65,-334.65 715.65,-332.2 708.65,-329.75 708.65,-334.65"/>
<text xml:space="preserve" text-anchor="middle" x="658.56" y="-333.4" font-family="Courier Prime" font-size="9.00" fill="#5b5b5b">project new</text>
</g>
<!-- legend -->
<g id="node17" class="node">
<title>legend</title>
<polygon fill="#fff8e6" stroke="#f0a757" points="267.92,-70.4 0,-70.4 0,0 273.92,0 273.92,-64.4 267.92,-70.4"/>
<polyline fill="none" stroke="#f0a757" points="267.92,-70.4 267.92,-64.4"/>
<polyline fill="none" stroke="#f0a757" points="273.92,-64.4 267.92,-64.4"/>
<text xml:space="preserve" text-anchor="start" x="16.96" y="-49.75" font-family="EB Garamond" font-weight="bold" font-size="11.00" fill="#1a1a1a">Invariant:</text>
<text xml:space="preserve" text-anchor="start" x="66.46" y="-49.75" font-family="EB Garamond" font-size="11.00" fill="#1a1a1a"> exactly one Obsidian vault per user.</text>
<text xml:space="preserve" text-anchor="start" x="16.96" y="-31.75" font-family="EB Garamond" font-size="11.00" fill="#1a1a1a">Choose Mode A </text>
<text xml:space="preserve" text-anchor="start" x="97.21" y="-31.75" font-family="EB Garamond" font-style="italic" font-size="11.00" fill="#1a1a1a">or</text>
<text xml:space="preserve" text-anchor="start" x="106.96" y="-31.75" font-family="EB Garamond" font-size="11.00" fill="#1a1a1a"> Mode B — never both at once.</text>
<text xml:space="preserve" text-anchor="start" x="16.96" y="-13.75" font-family="EB Garamond" font-size="11.00" fill="#1a1a1a">Migration: </text>
<text xml:space="preserve" text-anchor="start" x="67.21" y="-13.75" font-family="Courier Prime" font-size="11.00" fill="#1a1a1a">murmurent notebook move&#45;to &lt;host&gt;</text>
</g>
<!-- legend&#45;&gt;R_vault -->
</g>
</svg>
