<?xml version="1.0" encoding="UTF-8" standalone="no"?>
<!DOCTYPE svg PUBLIC "-//W3C//DTD SVG 1.1//EN"
 "http://www.w3.org/Graphics/SVG/1.1/DTD/svg11.dtd">
<!-- Generated by graphviz version 14.1.5 (20260411.2331)
 -->
<!-- Title: install_modes Pages: 1 -->
<svg width="1294pt" height="777pt"
 viewBox="0.00 0.00 1294.00 777.00" xmlns="http://www.w3.org/2000/svg" xmlns:xlink="http://www.w3.org/1999/xlink">
<g id="graph0" class="graph" transform="scale(1 1) rotate(0) translate(4 773.2)">
<title>install_modes</title>
<polygon fill="#faf8f5" stroke="none" points="-4,4 -4,-773.2 1289.9,-773.2 1289.9,4 -4,4"/>
<text xml:space="preserve" text-anchor="start" x="497.45" y="-749.1" font-family="EB Garamond" font-weight="bold" font-size="18.00" fill="#201436">murmurent · project install modes</text>
<text xml:space="preserve" text-anchor="start" x="506.07" y="-737.75" font-family="EB Garamond" font-size="11.00" fill="#201436">where does each artefact live? · local laptop vs lab&#45;server</text>
<g id="clust1" class="cluster">
<title>cluster_local</title>
<path fill="#f1ece3" stroke="#4f2683" d="M432.01,-470.2C432.01,-470.2 1244.9,-470.2 1244.9,-470.2 1250.9,-470.2 1256.9,-476.2 1256.9,-482.2 1256.9,-482.2 1256.9,-712.2 1256.9,-712.2 1256.9,-718.2 1250.9,-724.2 1244.9,-724.2 1244.9,-724.2 432.01,-724.2 432.01,-724.2 426.01,-724.2 420.01,-718.2 420.01,-712.2 420.01,-712.2 420.01,-482.2 420.01,-482.2 420.01,-476.2 426.01,-470.2 432.01,-470.2"/>
<text xml:space="preserve" text-anchor="start" x="778.46" y="-709.8" font-family="EB Garamond" font-weight="bold" font-size="12.00" fill="#4f2683">Mode A · Local install</text>
<text xml:space="preserve" text-anchor="start" x="772.08" y="-700.65" font-family="EB Garamond" font-size="9.00" fill="#4f2683">simplest; default for new projects</text>
</g>
<g id="clust2" class="cluster">
<title>cluster_remote</title>
<path fill="#e1ebd6" stroke="#4f6b3a" d="M67.62,-98.2C67.62,-98.2 1265.9,-98.2 1265.9,-98.2 1271.9,-98.2 1277.9,-104.2 1277.9,-110.2 1277.9,-110.2 1277.9,-390.2 1277.9,-390.2 1277.9,-396.2 1271.9,-402.2 1265.9,-402.2 1265.9,-402.2 67.62,-402.2 67.62,-402.2 61.62,-402.2 55.62,-396.2 55.62,-390.2 55.62,-390.2 55.62,-110.2 55.62,-110.2 55.62,-104.2 61.62,-98.2 67.62,-98.2"/>
<text xml:space="preserve" text-anchor="start" x="593.64" y="-387.8" font-family="EB Garamond" font-weight="bold" font-size="12.00" fill="#4f6b3a">Mode B · lab&#45;server install</text>
<text xml:space="preserve" text-anchor="start" x="562.51" y="-378.65" font-family="EB Garamond" font-size="9.00" fill="#4f6b3a">project + data + vault all on lab&#45;server.example.edu</text>
</g>
<!-- github -->
<g id="node1" class="node">
<title>github</title>
<path fill="#eef2ff" stroke="#6f4da8" d="M1198.65,-457.8C1198.65,-460.45 1172.17,-462.6 1139.56,-462.6 1106.96,-462.6 1080.48,-460.45 1080.48,-457.8 1080.48,-457.8 1080.48,-414.6 1080.48,-414.6 1080.48,-411.95 1106.96,-409.8 1139.56,-409.8 1172.17,-409.8 1198.65,-411.95 1198.65,-414.6 1198.65,-414.6 1198.65,-457.8 1198.65,-457.8"/>
<path fill="none" stroke="#6f4da8" d="M1198.65,-457.8C1198.65,-455.15 1172.17,-453 1139.56,-453 1106.96,-453 1080.48,-455.15 1080.48,-457.8"/>
<text xml:space="preserve" text-anchor="middle" x="1139.56" y="-437.75" font-family="EB Garamond" font-size="11.00" fill="#1a1a1a">GitHub</text>
<text xml:space="preserve" text-anchor="middle" x="1139.56" y="-425.75" font-family="EB Garamond" font-size="11.00" fill="#1a1a1a">hallettmiket / &lt;org&gt;</text>
</g>
<!-- L_laptop -->
<g id="node2" class="node">
<title>L_laptop</title>
<path fill="none" stroke="none" d="M548.2,-514.2C548.2,-514.2 465.28,-514.2 465.28,-514.2 459.28,-514.2 453.28,-508.2 453.28,-502.2 453.28,-502.2 453.28,-490.2 453.28,-490.2 453.28,-484.2 459.28,-478.2 465.28,-478.2 465.28,-478.2 548.2,-478.2 548.2,-478.2 554.2,-478.2 560.2,-484.2 560.2,-490.2 560.2,-490.2 560.2,-502.2 560.2,-502.2 560.2,-508.2 554.2,-514.2 548.2,-514.2"/>
<text xml:space="preserve" text-anchor="start" x="466.24" y="-492.75" font-family="EB Garamond" font-weight="bold" font-size="11.00" fill="#1a1a1a">laptop (macOS)</text>
</g>
<!-- L_dashboard -->
<g id="node3" class="node">
<title>L_dashboard</title>
<path fill="#ffe9cc" stroke="#f0a757" d="M560.95,-588.4C560.95,-588.4 452.53,-588.4 452.53,-588.4 446.53,-588.4 440.53,-582.4 440.53,-576.4 440.53,-576.4 440.53,-562 440.53,-562 440.53,-556 446.53,-550 452.53,-550 452.53,-550 560.95,-550 560.95,-550 566.95,-550 572.95,-556 572.95,-562 572.95,-562 572.95,-576.4 572.95,-576.4 572.95,-582.4 566.95,-588.4 560.95,-588.4"/>
<text xml:space="preserve" text-anchor="middle" x="506.74" y="-570.75" font-family="EB Garamond" font-size="11.00" fill="#1a1a1a">murmurent dashboard</text>
<text xml:space="preserve" text-anchor="middle" x="506.74" y="-558.75" font-family="EB Garamond" font-size="11.00" fill="#1a1a1a">(uvicorn :8770)</text>
</g>
<!-- L_repo -->
<g id="node4" class="node">
<title>L_repo</title>
<path fill="#ffffff" stroke="#c7bfb1" d="M863.73,-608.4C863.73,-608.4 776.31,-608.4 776.31,-608.4 770.31,-608.4 764.31,-602.4 764.31,-596.4 764.31,-596.4 764.31,-582 764.31,-582 764.31,-576 770.31,-570 776.31,-570 776.31,-570 863.73,-570 863.73,-570 869.73,-570 875.73,-576 875.73,-582 875.73,-582 875.73,-596.4 875.73,-596.4 875.73,-602.4 869.73,-608.4 863.73,-608.4"/>
<text xml:space="preserve" text-anchor="middle" x="820.02" y="-590.75" font-family="EB Garamond" font-size="11.00" fill="#1a1a1a">~/repos/&lt;project&gt;</text>
<text xml:space="preserve" text-anchor="middle" x="820.02" y="-578.75" font-family="EB Garamond" font-size="11.00" fill="#1a1a1a">(working tree)</text>
</g>
<!-- L_dashboard&#45;&gt;L_repo -->
<g id="edge1" class="edge">
<title>L_dashboard&#45;&gt;L_repo</title>
<path fill="none" stroke="#5b5b5b" d="M573.37,-573.42C627.05,-576.87 702.48,-581.71 755.55,-585.12"/>
<polygon fill="#5b5b5b" stroke="#5b5b5b" points="755.22,-587.56 762.36,-585.56 755.53,-582.67 755.22,-587.56"/>
</g>
<!-- L_vault -->
<g id="node5" class="node">
<title>L_vault</title>
<path fill="#e9defa" stroke="#6f4da8" d="M895.23,-534.4C895.23,-534.4 744.81,-534.4 744.81,-534.4 738.81,-534.4 732.81,-528.4 732.81,-522.4 732.81,-522.4 732.81,-508 732.81,-508 732.81,-502 738.81,-496 744.81,-496 744.81,-496 895.23,-496 895.23,-496 901.23,-496 907.23,-502 907.23,-508 907.23,-508 907.23,-522.4 907.23,-522.4 907.23,-528.4 901.23,-534.4 895.23,-534.4"/>
<text xml:space="preserve" text-anchor="middle" x="820.02" y="-516.75" font-family="EB Garamond" font-size="11.00" fill="#1a1a1a">Obsidian vault</text>
<text xml:space="preserve" text-anchor="middle" x="820.02" y="-504.75" font-family="EB Garamond" font-size="11.00" fill="#1a1a1a">~/Documents/Obsidian/&lt;vault&gt;</text>
</g>
<!-- L_dashboard&#45;&gt;L_vault -->
<g id="edge4" class="edge">
<title>L_dashboard&#45;&gt;L_vault</title>
<path fill="none" stroke="#5b5b5b" d="M573.37,-557.81C617.13,-550.22 675.35,-540.12 724.12,-531.66"/>
<polygon fill="#5b5b5b" stroke="#5b5b5b" points="724.52,-534.08 731,-530.47 723.68,-529.25 724.52,-534.08"/>
<text xml:space="preserve" text-anchor="middle" x="675.06" y="-546.63" font-family="Courier Prime" font-size="9.00" fill="#5b5b5b">notebook</text>
</g>
<!-- L_repo&#45;&gt;github -->
<g id="edge10" class="edge">
<title>L_repo&#45;&gt;github</title>
<path fill="none" stroke="#5b5b5b" stroke-dasharray="5,2" d="M873.32,-569.69C884.82,-564.6 896.7,-558.7 907.23,-552.2 957.69,-521.06 956.21,-492.75 1009.23,-466.2 1028.61,-456.5 1051.2,-449.87 1072.03,-445.38"/>
<polygon fill="#5b5b5b" stroke="#5b5b5b" points="1072.37,-447.81 1078.73,-444 1071.38,-443.01 1072.37,-447.81"/>
<text xml:space="preserve" text-anchor="middle" x="958.23" y="-535.05" font-family="Courier Prime" font-size="9.00" fill="#5b5b5b">git push</text>
</g>
<!-- L_lab_vm -->
<g id="node6" class="node">
<title>L_lab_vm</title>
<path fill="#ffffff" stroke="#c7bfb1" d="M1236.9,-608.4C1236.9,-608.4 1042.23,-608.4 1042.23,-608.4 1036.23,-608.4 1030.23,-602.4 1030.23,-596.4 1030.23,-596.4 1030.23,-582 1030.23,-582 1030.23,-576 1036.23,-570 1042.23,-570 1042.23,-570 1236.9,-570 1236.9,-570 1242.9,-570 1248.9,-576 1248.9,-582 1248.9,-582 1248.9,-596.4 1248.9,-596.4 1248.9,-602.4 1242.9,-608.4 1236.9,-608.4"/>
<text xml:space="preserve" text-anchor="middle" x="1139.56" y="-590.75" font-family="EB Garamond" font-size="11.00" fill="#1a1a1a">~/lab_vm/data/{immutable,append_only}</text>
<text xml:space="preserve" text-anchor="middle" x="1139.56" y="-578.75" font-family="EB Garamond" font-size="11.00" fill="#1a1a1a">(simulated)</text>
</g>
<!-- L_repo&#45;&gt;L_lab_vm -->
<g id="edge3" class="edge">
<title>L_repo&#45;&gt;L_lab_vm</title>
<path fill="none" stroke="#5b5b5b" d="M875.97,-589.2C915.99,-589.2 971.68,-589.2 1021.48,-589.2"/>
<polygon fill="#5b5b5b" stroke="#5b5b5b" points="1021.23,-591.65 1028.23,-589.2 1021.23,-586.75 1021.23,-591.65"/>
<text xml:space="preserve" text-anchor="middle" x="958.23" y="-590.4" font-family="Courier Prime" font-size="9.00" fill="#5b5b5b">reads / writes</text>
</g>
<!-- L_vscode -->
<g id="node7" class="node">
<title>L_vscode</title>
<path fill="#fff1db" stroke="#c7bfb1" d="M576.08,-663.68C576.08,-663.68 555.49,-680.08 555.49,-680.08 550.8,-683.82 540.1,-687.55 534.1,-687.55 534.1,-687.55 479.38,-687.55 479.38,-687.55 473.38,-687.55 462.68,-683.82 457.99,-680.08 457.99,-680.08 437.4,-663.68 437.4,-663.68 432.71,-659.94 432.71,-652.46 437.4,-648.72 437.4,-648.72 457.99,-632.32 457.99,-632.32 462.68,-628.58 473.38,-624.85 479.38,-624.85 479.38,-624.85 534.1,-624.85 534.1,-624.85 540.1,-624.85 550.8,-628.58 555.49,-632.32 555.49,-632.32 576.08,-648.72 576.08,-648.72 580.77,-652.46 580.77,-659.94 576.08,-663.68"/>
<text xml:space="preserve" text-anchor="middle" x="506.74" y="-657.75" font-family="EB Garamond" font-size="11.00" fill="#1a1a1a">VSCode + CC</text>
<text xml:space="preserve" text-anchor="middle" x="506.74" y="-645.75" font-family="EB Garamond" font-size="11.00" fill="#1a1a1a">(local)</text>
</g>
<!-- L_vscode&#45;&gt;L_repo -->
<g id="edge2" class="edge">
<title>L_vscode&#45;&gt;L_repo</title>
<path fill="none" stroke="#5b5b5b" d="M569.24,-642.96C623.17,-631.36 701.25,-614.55 755.71,-602.83"/>
<polygon fill="#5b5b5b" stroke="#5b5b5b" points="756.1,-605.25 762.43,-601.38 755.07,-600.46 756.1,-605.25"/>
</g>
<!-- R_laptop -->
<g id="node8" class="node">
<title>R_laptop</title>
<path fill="none" stroke="none" d="M178.42,-142.2C178.42,-142.2 95.5,-142.2 95.5,-142.2 89.5,-142.2 83.5,-136.2 83.5,-130.2 83.5,-130.2 83.5,-118.2 83.5,-118.2 83.5,-112.2 89.5,-106.2 95.5,-106.2 95.5,-106.2 178.42,-106.2 178.42,-106.2 184.42,-106.2 190.42,-112.2 190.42,-118.2 190.42,-118.2 190.42,-130.2 190.42,-130.2 190.42,-136.2 184.42,-142.2 178.42,-142.2"/>
<text xml:space="preserve" text-anchor="start" x="96.46" y="-120.75" font-family="EB Garamond" font-weight="bold" font-size="11.00" fill="#1a1a1a">laptop (macOS)</text>
</g>
<!-- R_dashboard -->
<g id="node9" class="node">
<title>R_dashboard</title>
<path fill="#ffe9cc" stroke="#f0a757" d="M191.17,-293.4C191.17,-293.4 82.75,-293.4 82.75,-293.4 76.75,-293.4 70.75,-287.4 70.75,-281.4 70.75,-281.4 70.75,-267 70.75,-267 70.75,-261 76.75,-255 82.75,-255 82.75,-255 191.17,-255 191.17,-255 197.17,-255 203.17,-261 203.17,-267 203.17,-267 203.17,-281.4 203.17,-281.4 203.17,-287.4 197.17,-293.4 191.17,-293.4"/>
<text xml:space="preserve" text-anchor="middle" x="136.96" y="-275.75" font-family="EB Garamond" font-size="11.00" fill="#1a1a1a">murmurent dashboard</text>
<text xml:space="preserve" text-anchor="middle" x="136.96" y="-263.75" font-family="EB Garamond" font-size="11.00" fill="#1a1a1a">(uvicorn :8770)</text>
</g>
<!-- R_murmurent -->
<g id="node16" class="node">
<title>R_murmurent</title>
<path fill="#ffffff" stroke="#c7bfb1" d="M577.07,-351.4C577.07,-351.4 436.4,-351.4 436.4,-351.4 430.4,-351.4 424.4,-345.4 424.4,-339.4 424.4,-339.4 424.4,-325 424.4,-325 424.4,-319 430.4,-313 436.4,-313 436.4,-313 577.07,-313 577.07,-313 583.07,-313 589.07,-319 589.07,-325 589.07,-325 589.07,-339.4 589.07,-339.4 589.07,-345.4 583.07,-351.4 577.07,-351.4"/>
<text xml:space="preserve" text-anchor="middle" x="506.74" y="-333.75" font-family="EB Garamond" font-size="11.00" fill="#1a1a1a">murmurent CLI on lab&#45;server</text>
<text xml:space="preserve" text-anchor="middle" x="506.74" y="-321.75" font-family="EB Garamond" font-size="11.00" fill="#1a1a1a">(uv tool install)</text>
</g>
<!-- R_dashboard&#45;&gt;R_murmurent -->
<g id="edge5" class="edge">
<title>R_dashboard&#45;&gt;R_murmurent</title>
<path fill="none" stroke="#4f2683" stroke-width="2" d="M203.29,-284.5C262.38,-293.82 349.94,-307.63 415.66,-317.99"/>
<polygon fill="#4f2683" stroke="#4f2683" stroke-width="2" points="413.68,-320.16 420.98,-318.83 414.45,-315.32 413.68,-320.16"/>
<text xml:space="preserve" text-anchor="middle" x="335.05" y="-311.3" font-family="Courier Prime" font-size="9.00" fill="#5b5b5b">ssh &lt;my_server&gt; &#160;</text>
</g>
<!-- R_vscode_remote -->
<g id="node10" class="node">
<title>R_vscode_remote</title>
<path fill="#fff1db" stroke="#c7bfb1" d="M606.87,-251.12C606.87,-251.12 572.46,-270.63 572.46,-270.63 567.24,-273.59 556.02,-276.55 550.02,-276.55 550.02,-276.55 463.45,-276.55 463.45,-276.55 457.45,-276.55 446.24,-273.59 441.02,-270.63 441.02,-270.63 406.61,-251.12 406.61,-251.12 401.39,-248.16 401.39,-242.24 406.61,-239.28 406.61,-239.28 441.02,-219.77 441.02,-219.77 446.24,-216.81 457.45,-213.85 463.45,-213.85 463.45,-213.85 550.02,-213.85 550.02,-213.85 556.02,-213.85 567.24,-216.81 572.46,-219.77 572.46,-219.77 606.87,-239.28 606.87,-239.28 612.09,-242.24 612.09,-248.16 606.87,-251.12"/>
<text xml:space="preserve" text-anchor="middle" x="506.74" y="-246.75" font-family="EB Garamond" font-size="11.00" fill="#1a1a1a">VSCode Remote&#45;SSH</text>
<text xml:space="preserve" text-anchor="middle" x="506.74" y="-234.75" font-family="EB Garamond" font-size="11.00" fill="#1a1a1a">client</text>
</g>
<!-- R_repo -->
<g id="node13" class="node">
<title>R_repo</title>
<path fill="#ffffff" stroke="#c7bfb1" d="M894.1,-351.4C894.1,-351.4 745.93,-351.4 745.93,-351.4 739.93,-351.4 733.93,-345.4 733.93,-339.4 733.93,-339.4 733.93,-325 733.93,-325 733.93,-319 739.93,-313 745.93,-313 745.93,-313 894.1,-313 894.1,-313 900.1,-313 906.1,-319 906.1,-325 906.1,-325 906.1,-339.4 906.1,-339.4 906.1,-345.4 900.1,-351.4 894.1,-351.4"/>
<text xml:space="preserve" text-anchor="middle" x="820.02" y="-333.75" font-family="EB Garamond" font-size="11.00" fill="#1a1a1a">/home/&lt;user&gt;/repos/&lt;project&gt;</text>
<text xml:space="preserve" text-anchor="middle" x="820.02" y="-321.75" font-family="EB Garamond" font-size="11.00" fill="#1a1a1a">(working tree)</text>
</g>
<!-- R_vscode_remote&#45;&gt;R_repo -->
<g id="edge6" class="edge">
<title>R_vscode_remote&#45;&gt;R_repo</title>
<path fill="none" stroke="#4f2683" stroke-width="2" d="M581.51,-265.82C629.45,-279.22 691.88,-296.66 740.7,-310.31"/>
<polygon fill="#4f2683" stroke="#4f2683" stroke-width="2" points="738.4,-312.21 745.81,-311.74 739.72,-307.49 738.4,-312.21"/>
<text xml:space="preserve" text-anchor="middle" x="675.06" y="-300.25" font-family="Courier Prime" font-size="9.00" fill="#5b5b5b">vscode&#45;remote://</text>
</g>
<!-- R_obs_local -->
<g id="node11" class="node">
<title>R_obs_local</title>
<path fill="#e9defa" stroke="#6f4da8" d="M196.42,-218.52C196.42,-218.52 77.5,-218.52 77.5,-218.52 71.5,-218.52 65.5,-212.52 65.5,-206.52 65.5,-206.52 65.5,-189.88 65.5,-189.88 65.5,-183.88 71.5,-177.88 77.5,-177.88 77.5,-177.88 196.42,-177.88 196.42,-177.88 202.42,-177.88 208.42,-183.88 208.42,-189.88 208.42,-189.88 208.42,-206.52 208.42,-206.52 208.42,-212.52 202.42,-218.52 196.42,-218.52"/>
<text xml:space="preserve" text-anchor="middle" x="136.96" y="-200.88" font-family="EB Garamond" font-size="11.00" fill="#1a1a1a">Obsidian (GUI)</text>
<text xml:space="preserve" text-anchor="middle" x="136.96" y="-188.88" font-family="EB Garamond" font-size="11.00" fill="#1a1a1a">→ opens SSHFS mount</text>
</g>
<!-- R_vault -->
<g id="node15" class="node">
<title>R_vault</title>
<path fill="#ffffff" stroke="#c7bfb1" d="M583.45,-166.4C583.45,-166.4 430.03,-166.4 430.03,-166.4 424.03,-166.4 418.03,-160.4 418.03,-154.4 418.03,-154.4 418.03,-140 418.03,-140 418.03,-134 424.03,-128 430.03,-128 430.03,-128 583.45,-128 583.45,-128 589.45,-128 595.45,-134 595.45,-140 595.45,-140 595.45,-154.4 595.45,-154.4 595.45,-160.4 589.45,-166.4 583.45,-166.4"/>
<text xml:space="preserve" text-anchor="middle" x="506.74" y="-148.75" font-family="EB Garamond" font-size="11.00" fill="#1a1a1a">/home/&lt;user&gt;/Obsidian/&lt;vault&gt;</text>
<text xml:space="preserve" text-anchor="middle" x="506.74" y="-136.75" font-family="EB Garamond" font-size="11.00" fill="#1a1a1a">(authoritative copy)</text>
</g>
<!-- R_obs_local&#45;&gt;R_vault -->
<g id="edge7" class="edge">
<title>R_obs_local&#45;&gt;R_vault</title>
<path fill="none" stroke="#4f2683" stroke-width="2" d="M208.87,-188.37C265.9,-180.46 346.61,-169.27 409.48,-160.55"/>
<polygon fill="#4f2683" stroke="#4f2683" stroke-width="2" points="408.24,-163.19 414.84,-159.81 407.57,-158.34 408.24,-163.19"/>
<text xml:space="preserve" text-anchor="middle" x="335.05" y="-176.95" font-family="Courier Prime" font-size="9.00" fill="#5b5b5b">SSHFS mount</text>
</g>
<!-- R_labserver -->
<g id="node12" class="node">
<title>R_labserver</title>
<path fill="none" stroke="none" d="M198.3,-365.2C198.3,-365.2 75.63,-365.2 75.63,-365.2 69.63,-365.2 63.63,-359.2 63.63,-353.2 63.63,-353.2 63.63,-341.2 63.63,-341.2 63.63,-335.2 69.63,-329.2 75.63,-329.2 75.63,-329.2 198.3,-329.2 198.3,-329.2 204.29,-329.2 210.3,-335.2 210.3,-341.2 210.3,-341.2 210.3,-353.2 210.3,-353.2 210.3,-359.2 204.3,-365.2 198.3,-365.2"/>
<text xml:space="preserve" text-anchor="start" x="76.59" y="-347.75" font-family="EB Garamond" font-weight="bold" font-size="11.00" fill="#1a1a1a">lab&#45;server.example.edu</text>
<text xml:space="preserve" text-anchor="start" x="92.34" y="-338.65" font-family="EB Garamond" font-size="9.00" fill="#1a1a1a">Ubuntu · 203.0.113.10</text>
</g>
<!-- R_repo&#45;&gt;github -->
<g id="edge11" class="edge">
<title>R_repo&#45;&gt;github</title>
<path fill="none" stroke="#5b5b5b" stroke-dasharray="5,2" d="M865.61,-351.88C903.34,-368 959.1,-390.62 1009.23,-406.2 1029.35,-412.45 1051.59,-418.06 1071.87,-422.7"/>
<polygon fill="#5b5b5b" stroke="#5b5b5b" points="1071.29,-425.08 1078.66,-424.22 1072.37,-420.3 1071.29,-425.08"/>
<text xml:space="preserve" text-anchor="middle" x="958.23" y="-398.85" font-family="Courier Prime" font-size="9.00" fill="#5b5b5b">git push</text>
</g>
<!-- R_lab_vm -->
<g id="node14" class="node">
<title>R_lab_vm</title>
<path fill="#ffffff" stroke="#c7bfb1" d="M1257.9,-351.4C1257.9,-351.4 1021.23,-351.4 1021.23,-351.4 1015.23,-351.4 1009.23,-345.4 1009.23,-339.4 1009.23,-339.4 1009.23,-325 1009.23,-325 1009.23,-319 1015.23,-313 1021.23,-313 1021.23,-313 1257.9,-313 1257.9,-313 1263.9,-313 1269.9,-319 1269.9,-325 1269.9,-325 1269.9,-339.4 1269.9,-339.4 1269.9,-345.4 1263.9,-351.4 1257.9,-351.4"/>
<text xml:space="preserve" text-anchor="middle" x="1139.56" y="-333.75" font-family="EB Garamond" font-size="11.00" fill="#1a1a1a">/data/lab_vm/{immutable,append_only}/&lt;project&gt;</text>
<text xml:space="preserve" text-anchor="middle" x="1139.56" y="-321.75" font-family="EB Garamond" font-size="11.00" fill="#1a1a1a">(real data plane)</text>
</g>
<!-- R_repo&#45;&gt;R_lab_vm -->
<g id="edge9" class="edge">
<title>R_repo&#45;&gt;R_lab_vm</title>
<path fill="none" stroke="#5b5b5b" d="M906.53,-332.2C935.58,-332.2 968.81,-332.2 1000.87,-332.2"/>
<polygon fill="#5b5b5b" stroke="#5b5b5b" points="1000.48,-334.65 1007.48,-332.2 1000.48,-329.75 1000.48,-334.65"/>
<text xml:space="preserve" text-anchor="middle" x="958.23" y="-333.4" font-family="Courier Prime" font-size="9.00" fill="#5b5b5b">reads / writes</text>
</g>
<!-- R_murmurent&#45;&gt;R_repo -->
<g id="edge8" class="edge">
<title>R_murmurent&#45;&gt;R_repo</title>
<path fill="none" stroke="#5b5b5b" d="M589.53,-332.2C631.24,-332.2 682.17,-332.2 725.44,-332.2"/>
<polygon fill="#5b5b5b" stroke="#5b5b5b" points="725.19,-334.65 732.19,-332.2 725.19,-329.75 725.19,-334.65"/>
<text xml:space="preserve" text-anchor="middle" x="675.06" y="-333.4" font-family="Courier Prime" font-size="9.00" fill="#5b5b5b">project new</text>
</g>
<!-- legend -->
<g id="node17" class="node">
<title>legend</title>
<polygon fill="#fff8e6" stroke="#f0a757" points="267.92,-70.4 0,-70.4 0,0 273.92,0 273.92,-64.4 267.92,-70.4"/>
<polyline fill="none" stroke="#f0a757" points="267.92,-70.4 267.92,-64.4"/>
<polyline fill="none" stroke="#f0a757" points="273.92,-64.4 267.92,-64.4"/>
<text xml:space="preserve" text-anchor="start" x="16.96" y="-49.75" font-family="EB Garamond" font-weight="bold" font-size="11.00" fill="#1a1a1a">Invariant:</text>
<text xml:space="preserve" text-anchor="start" x="66.46" y="-49.75" font-family="EB Garamond" font-size="11.00" fill="#1a1a1a"> exactly one Obsidian vault per user.</text>
<text xml:space="preserve" text-anchor="start" x="16.96" y="-31.75" font-family="EB Garamond" font-size="11.00" fill="#1a1a1a">Choose Mode A </text>
<text xml:space="preserve" text-anchor="start" x="97.21" y="-31.75" font-family="EB Garamond" font-style="italic" font-size="11.00" fill="#1a1a1a">or</text>
<text xml:space="preserve" text-anchor="start" x="106.96" y="-31.75" font-family="EB Garamond" font-size="11.00" fill="#1a1a1a"> Mode B — never both at once.</text>
<text xml:space="preserve" text-anchor="start" x="16.96" y="-13.75" font-family="EB Garamond" font-size="11.00" fill="#1a1a1a">Migration: </text>
<text xml:space="preserve" text-anchor="start" x="67.21" y="-13.75" font-family="Courier Prime" font-size="11.00" fill="#1a1a1a">murmurent notebook move&#45;to &lt;host&gt;</text>
</g>
<!-- legend&#45;&gt;R_vault -->
</g>
</svg>
