<?xml version="1.0" encoding="UTF-8" standalone="no"?>
<!DOCTYPE svg PUBLIC "-//W3C//DTD SVG 1.1//EN"
 "http://www.w3.org/Graphics/SVG/1.1/DTD/svg11.dtd">
<!-- Generated by graphviz version 14.1.5 (20260411.2331)
 -->
<!-- Title: murmurent_system_map Pages: 1 -->
<svg width="2001pt" height="671pt"
 viewBox="0.00 0.00 2001.00 671.00" xmlns="http://www.w3.org/2000/svg" xmlns:xlink="http://www.w3.org/1999/xlink">
<g id="graph0" class="graph" transform="scale(1 1) rotate(0) translate(4 667.4)">
<title>murmurent_system_map</title>
<polygon fill="#faf8f5" stroke="none" points="-4,4 -4,-667.4 1996.86,-667.4 1996.86,4 -4,4"/>
<text xml:space="preserve" text-anchor="start" x="889.93" y="-643.3" font-family="EB Garamond" font-weight="bold" font-size="18.00" fill="#201436">murmurent · system map</text>
<text xml:space="preserve" text-anchor="start" x="889.93" y="-631.95" font-family="EB Garamond" font-size="11.00" fill="#201436">v1.0.0 · bioconvergence centre infrastructure</text>
<g id="clust1" class="cluster">
<title>cluster_launch</title>
<path fill="#f1ece3" stroke="#4f2683" stroke-dasharray="5,2" d="M20,-220.4C20,-220.4 336,-220.4 336,-220.4 342,-220.4 348,-226.4 348,-232.4 348,-232.4 348,-606.4 348,-606.4 348,-612.4 342,-618.4 336,-618.4 336,-618.4 20,-618.4 20,-618.4 14,-618.4 8,-612.4 8,-606.4 8,-606.4 8,-232.4 8,-232.4 8,-226.4 14,-220.4 20,-220.4"/>
<text xml:space="preserve" text-anchor="start" x="123.62" y="-604" font-family="EB Garamond" font-weight="bold" font-size="12.00" fill="#4f2683">1. Identity &amp; launch</text>
</g>
<g id="clust2" class="cluster">
<title>cluster_tiers</title>
<path fill="#f1ece3" stroke="#4f2683" stroke-dasharray="5,2" d="M376,-212.4C376,-212.4 1735,-212.4 1735,-212.4 1741,-212.4 1747,-218.4 1747,-224.4 1747,-224.4 1747,-319.55 1747,-319.55 1747,-325.55 1741,-331.55 1735,-331.55 1735,-331.55 376,-331.55 376,-331.55 370,-331.55 364,-325.55 364,-319.55 364,-319.55 364,-224.4 364,-224.4 364,-218.4 370,-212.4 376,-212.4"/>
<text xml:space="preserve" text-anchor="start" x="1008.25" y="-317.15" font-family="EB Garamond" font-weight="bold" font-size="12.00" fill="#4f2683">2. The three tiers</text>
</g>
<g id="clust3" class="cluster">
<title>cluster_commons</title>
<path fill="#e9defa" stroke="#6f4da8" d="M384,-221.6C384,-221.6 1090,-221.6 1090,-221.6 1096,-221.6 1102,-227.6 1102,-233.6 1102,-233.6 1102,-289.6 1102,-289.6 1102,-295.6 1096,-301.6 1090,-301.6 1090,-301.6 384,-301.6 384,-301.6 378,-301.6 372,-295.6 372,-289.6 372,-289.6 372,-233.6 372,-233.6 372,-227.6 378,-221.6 384,-221.6"/>
<text xml:space="preserve" text-anchor="start" x="690.88" y="-288.15" font-family="EB Garamond" font-weight="bold" font-size="11.00" fill="#4f2683">Tier 1 · Commons</text>
<text xml:space="preserve" text-anchor="start" x="691.25" y="-279.05" font-family="EB Garamond" font-size="9.00" fill="#4f2683">~/.claude/ via symlinks</text>
</g>
<g id="clust4" class="cluster">
<title>cluster_guilds</title>
<path fill="#ffe9cc" stroke="#f0a757" d="M1130,-220.4C1130,-220.4 1409,-220.4 1409,-220.4 1415,-220.4 1421,-226.4 1421,-232.4 1421,-232.4 1421,-290.8 1421,-290.8 1421,-296.8 1415,-302.8 1409,-302.8 1409,-302.8 1130,-302.8 1130,-302.8 1124,-302.8 1118,-296.8 1118,-290.8 1118,-290.8 1118,-232.4 1118,-232.4 1118,-226.4 1124,-220.4 1130,-220.4"/>
<text xml:space="preserve" text-anchor="start" x="1233.5" y="-289.35" font-family="EB Garamond" font-weight="bold" font-size="11.00" fill="#4f2683">Tier 2 · Guilds</text>
<text xml:space="preserve" text-anchor="start" x="1222.62" y="-280.25" font-family="EB Garamond" font-size="9.00" fill="#4f2683">guilds/&lt;group&gt;/agents/</text>
</g>
<g id="clust5" class="cluster">
<title>cluster_projects</title>
<path fill="#e1ebd6" stroke="#4f6b3a" d="M1449,-220.4C1449,-220.4 1727,-220.4 1727,-220.4 1733,-220.4 1739,-226.4 1739,-232.4 1739,-232.4 1739,-290.8 1739,-290.8 1739,-296.8 1733,-302.8 1727,-302.8 1727,-302.8 1449,-302.8 1449,-302.8 1443,-302.8 1437,-296.8 1437,-290.8 1437,-290.8 1437,-232.4 1437,-232.4 1437,-226.4 1443,-220.4 1449,-220.4"/>
<text xml:space="preserve" text-anchor="start" x="1516" y="-289.35" font-family="EB Garamond" font-weight="bold" font-size="11.00" fill="#4f2683">Tier 3 · Project namespaces</text>
<text xml:space="preserve" text-anchor="start" x="1552.75" y="-280.25" font-family="EB Garamond" font-size="9.00" fill="#4f2683">projects/&lt;name&gt;/</text>
</g>
<g id="clust6" class="cluster">
<title>cluster_data</title>
<path fill="#f1ece3" stroke="#4f2683" stroke-dasharray="5,2" d="M1083,-8C1083,-8 1825,-8 1825,-8 1831,-8 1837,-14 1837,-20 1837,-20 1837,-166.5 1837,-166.5 1837,-172.5 1831,-178.5 1825,-178.5 1825,-178.5 1083,-178.5 1083,-178.5 1077,-178.5 1071,-172.5 1071,-166.5 1071,-166.5 1071,-20 1071,-20 1071,-14 1077,-8 1083,-8"/>
<text xml:space="preserve" text-anchor="start" x="1385" y="-164.1" font-family="EB Garamond" font-weight="bold" font-size="12.00" fill="#4f2683">3. Per&#45;project data plane</text>
</g>
<!-- icon -->
<g id="node1" class="node">
<title>icon</title>
<path fill="#ffe9cc" stroke="#f0a757" d="M244.09,-589.65C244.09,-589.65 167.91,-589.65 167.91,-589.65 161.91,-589.65 155.91,-583.65 155.91,-577.65 155.91,-577.65 155.91,-563.25 155.91,-563.25 155.91,-557.25 161.91,-551.25 167.91,-551.25 167.91,-551.25 244.09,-551.25 244.09,-551.25 250.09,-551.25 256.09,-557.25 256.09,-563.25 256.09,-563.25 256.09,-577.65 256.09,-577.65 256.09,-583.65 250.09,-589.65 244.09,-589.65"/>
<text xml:space="preserve" text-anchor="middle" x="206" y="-572" font-family="EB Garamond" font-size="11.00" fill="#1a1a1a">Murmurent</text>
<text xml:space="preserve" text-anchor="middle" x="206" y="-560" font-family="EB Garamond" font-size="11.00" fill="#1a1a1a">Dashboard.app</text>
</g>
<!-- launcher -->
<g id="node2" class="node">
<title>launcher</title>
<path fill="#ffffff" stroke="#c7bfb1" d="M257.96,-510.25C257.96,-510.25 154.04,-510.25 154.04,-510.25 148.04,-510.25 142.04,-504.25 142.04,-498.25 142.04,-498.25 142.04,-483.85 142.04,-483.85 142.04,-477.85 148.04,-471.85 154.04,-471.85 154.04,-471.85 257.96,-471.85 257.96,-471.85 263.96,-471.85 269.96,-477.85 269.96,-483.85 269.96,-483.85 269.96,-498.25 269.96,-498.25 269.96,-504.25 263.96,-510.25 257.96,-510.25"/>
<text xml:space="preserve" text-anchor="middle" x="206" y="-492.6" font-family="EB Garamond" font-size="11.00" fill="#1a1a1a">zsh launcher</text>
<text xml:space="preserve" text-anchor="middle" x="206" y="-480.6" font-family="EB Garamond" font-size="11.00" fill="#1a1a1a">(create_mac_app.sh)</text>
</g>
<!-- icon&#45;&gt;launcher -->
<g id="edge1" class="edge">
<title>icon&#45;&gt;launcher</title>
<path fill="none" stroke="#5b5b5b" d="M206,-550.83C206,-550.83 206,-519.24 206,-519.24"/>
<polygon fill="#5b5b5b" stroke="#5b5b5b" points="208.45,-519.24 206,-512.24 203.55,-519.24 208.45,-519.24"/>
</g>
<!-- uvicorn -->
<g id="node3" class="node">
<title>uvicorn</title>
<path fill="#ffffff" stroke="#c7bfb1" d="M172.21,-414.9C172.21,-414.9 105.79,-414.9 105.79,-414.9 99.79,-414.9 93.79,-408.9 93.79,-402.9 93.79,-402.9 93.79,-388.5 93.79,-388.5 93.79,-382.5 99.79,-376.5 105.79,-376.5 105.79,-376.5 172.21,-376.5 172.21,-376.5 178.21,-376.5 184.21,-382.5 184.21,-388.5 184.21,-388.5 184.21,-402.9 184.21,-402.9 184.21,-408.9 178.21,-414.9 172.21,-414.9"/>
<text xml:space="preserve" text-anchor="middle" x="139" y="-397.25" font-family="EB Garamond" font-size="11.00" fill="#1a1a1a">uvicorn :8770</text>
<text xml:space="preserve" text-anchor="middle" x="139" y="-385.25" font-family="EB Garamond" font-size="11.00" fill="#1a1a1a">FastAPI app</text>
</g>
<!-- launcher&#45;&gt;uvicorn -->
<g id="edge2" class="edge">
<title>launcher&#45;&gt;uvicorn</title>
<path fill="none" stroke="#5b5b5b" d="M163.12,-471.76C163.12,-471.76 163.12,-423.81 163.12,-423.81"/>
<polygon fill="#5b5b5b" stroke="#5b5b5b" points="165.58,-423.81 163.13,-416.81 160.68,-423.81 165.58,-423.81"/>
</g>
<!-- sentinel_user -->
<g id="node4" class="node">
<title>sentinel_user</title>
<polygon fill="#fff8e6" stroke="#c7bfb1" points="325.58,-414.9 216.41,-414.9 216.41,-376.5 331.58,-376.5 331.58,-408.9 325.58,-414.9"/>
<polyline fill="none" stroke="#c7bfb1" points="325.58,-414.9 325.58,-408.9"/>
<polyline fill="none" stroke="#c7bfb1" points="331.58,-408.9 325.58,-408.9"/>
<text xml:space="preserve" text-anchor="middle" x="274" y="-397.25" font-family="EB Garamond" font-size="11.00" fill="#1a1a1a">~/.murmurent/user</text>
<text xml:space="preserve" text-anchor="middle" x="274" y="-385.25" font-family="EB Garamond" font-size="11.00" fill="#1a1a1a">(saved netname)</text>
</g>
<!-- launcher&#45;&gt;sentinel_user -->
<g id="edge3" class="edge">
<title>launcher&#45;&gt;sentinel_user</title>
<path fill="none" stroke="#5b5b5b" stroke-dasharray="5,2" d="M243.19,-471.76C243.19,-471.76 243.19,-423.81 243.19,-423.81"/>
<polygon fill="#5b5b5b" stroke="#5b5b5b" points="245.64,-423.81 243.19,-416.81 240.74,-423.81 245.64,-423.81"/>
<text xml:space="preserve" text-anchor="middle" x="260.62" y="-443.3" font-family="Courier Prime" font-size="9.00" fill="#5b5b5b">reads</text>
</g>
<!-- sentinel_reg -->
<g id="node5" class="node">
<title>sentinel_reg</title>
<polygon fill="#fff8e6" stroke="#c7bfb1" points="143.96,-266.8 16.04,-266.8 16.04,-228.4 149.96,-228.4 149.96,-260.8 143.96,-266.8"/>
<polyline fill="none" stroke="#c7bfb1" points="143.96,-266.8 143.96,-260.8"/>
<polyline fill="none" stroke="#c7bfb1" points="149.96,-260.8 143.96,-260.8"/>
<text xml:space="preserve" text-anchor="middle" x="83" y="-249.15" font-family="EB Garamond" font-size="11.00" fill="#1a1a1a">~/.murmurent/registrar</text>
<text xml:space="preserve" text-anchor="middle" x="83" y="-237.15" font-family="EB Garamond" font-size="11.00" fill="#1a1a1a">(legacy sentinel)</text>
</g>
<!-- uvicorn&#45;&gt;sentinel_reg -->
<g id="edge5" class="edge">
<title>uvicorn&#45;&gt;sentinel_reg</title>
<path fill="none" stroke="#5b5b5b" stroke-dasharray="5,2" d="M121.88,-376.04C121.88,-376.04 121.88,-275.39 121.88,-275.39"/>
<polygon fill="#5b5b5b" stroke="#5b5b5b" points="124.33,-275.39 121.88,-268.39 119.43,-275.39 124.33,-275.39"/>
<text xml:space="preserve" text-anchor="middle" x="125.5" y="-340.75" font-family="Courier Prime" font-size="9.00" fill="#5b5b5b">reads (fallback)</text>
</g>
<!-- audit -->
<g id="node6" class="node">
<title>audit</title>
<polygon fill="#fff8e6" stroke="#c7bfb1" points="334.33,-266.8 181.67,-266.8 181.67,-228.4 340.33,-228.4 340.33,-260.8 334.33,-266.8"/>
<polyline fill="none" stroke="#c7bfb1" points="334.33,-266.8 334.33,-260.8"/>
<polyline fill="none" stroke="#c7bfb1" points="340.33,-260.8 334.33,-260.8"/>
<text xml:space="preserve" text-anchor="middle" x="261" y="-249.15" font-family="EB Garamond" font-size="11.00" fill="#1a1a1a">~/.murmurent/role_audit.log</text>
<text xml:space="preserve" text-anchor="middle" x="261" y="-237.15" font-family="EB Garamond" font-size="11.00" fill="#1a1a1a">(append&#45;only)</text>
</g>
<!-- uvicorn&#45;&gt;audit -->
<g id="edge4" class="edge">
<title>uvicorn&#45;&gt;audit</title>
<path fill="none" stroke="#5b5b5b" stroke-dasharray="5,2" d="M184.52,-396C193.55,-396 200.31,-396 200.31,-396 200.31,-396 200.31,-275.52 200.31,-275.52"/>
<polygon fill="#5b5b5b" stroke="#5b5b5b" points="202.76,-275.52 200.31,-268.52 197.86,-275.52 202.76,-275.52"/>
<text xml:space="preserve" text-anchor="middle" x="242" y="-340.75" font-family="Courier Prime" font-size="9.00" fill="#5b5b5b">appends</text>
</g>
<!-- oracle -->
<g id="node7" class="node">
<title>oracle</title>
<path fill="#ffffff" stroke="#c7bfb1" d="M425.71,-265.6C425.71,-265.6 392.29,-265.6 392.29,-265.6 386.29,-265.6 380.29,-259.6 380.29,-253.6 380.29,-253.6 380.29,-241.6 380.29,-241.6 380.29,-235.6 386.29,-229.6 392.29,-229.6 392.29,-229.6 425.71,-229.6 425.71,-229.6 431.71,-229.6 437.71,-235.6 437.71,-241.6 437.71,-241.6 437.71,-253.6 437.71,-253.6 437.71,-259.6 431.71,-265.6 425.71,-265.6"/>
<text xml:space="preserve" text-anchor="middle" x="409" y="-243.15" font-family="EB Garamond" font-size="11.00" fill="#1a1a1a">Oracle</text>
</g>
<!-- uvicorn&#45;&gt;oracle -->
<g id="edge6" class="edge">
<title>uvicorn&#45;&gt;oracle</title>
<path fill="none" stroke="#5b5b5b" stroke-dasharray="1,5" d="M160.53,-376.22C160.53,-341.15 160.53,-271 160.53,-271 160.53,-271 399.43,-271 399.43,-271 399.43,-271 399.43,-270.5 399.43,-270.5"/>
<polygon fill="#5b5b5b" stroke="#5b5b5b" points="401.88,-274.55 399.43,-267.55 396.98,-274.55 401.88,-274.55"/>
<text xml:space="preserve" text-anchor="middle" x="339.75" y="-340.75" font-family="Courier Prime" font-size="9.00" fill="#5b5b5b">reads agents/</text>
</g>
<!-- proj1 -->
<g id="node17" class="node">
<title>proj1</title>
<path fill="#ffffff" stroke="#c7bfb1" d="M1572.96,-266.8C1572.96,-266.8 1457.04,-266.8 1457.04,-266.8 1451.04,-266.8 1445.04,-260.8 1445.04,-254.8 1445.04,-254.8 1445.04,-240.4 1445.04,-240.4 1445.04,-234.4 1451.04,-228.4 1457.04,-228.4 1457.04,-228.4 1572.96,-228.4 1572.96,-228.4 1578.96,-228.4 1584.96,-234.4 1584.96,-240.4 1584.96,-240.4 1584.96,-254.8 1584.96,-254.8 1584.96,-260.8 1578.96,-266.8 1572.96,-266.8"/>
<text xml:space="preserve" text-anchor="middle" x="1515" y="-249.15" font-family="EB Garamond" font-size="11.00" fill="#1a1a1a">dcis_imaging_genomics</text>
<text xml:space="preserve" text-anchor="middle" x="1515" y="-237.15" font-family="EB Garamond" font-size="11.00" fill="#1a1a1a">(g2 + g3 + g5)</text>
</g>
<!-- uvicorn&#45;&gt;proj1 -->
<g id="edge7" class="edge">
<title>uvicorn&#45;&gt;proj1</title>
<path fill="none" stroke="#5b5b5b" stroke-dasharray="1,5" d="M171.1,-376.04C171.1,-341.84 171.1,-275 171.1,-275 171.1,-275 1515,-275 1515,-275 1515,-275 1515,-274.22 1515,-274.22"/>
<polygon fill="#5b5b5b" stroke="#5b5b5b" points="1517.45,-275.74 1515,-268.74 1512.55,-275.74 1517.45,-275.74"/>
<text xml:space="preserve" text-anchor="middle" x="517" y="-340.75" font-family="Courier Prime" font-size="9.00" fill="#5b5b5b">renders dashboard</text>
</g>
<!-- registry -->
<g id="node20" class="node">
<title>registry</title>
<path fill="#ffffff" stroke="#c7bfb1" d="M1222.84,-149.75C1222.84,-149.75 1091.16,-149.75 1091.16,-149.75 1085.16,-149.75 1079.16,-143.75 1079.16,-137.75 1079.16,-137.75 1079.16,-123.35 1079.16,-123.35 1079.16,-117.35 1085.16,-111.35 1091.16,-111.35 1091.16,-111.35 1222.84,-111.35 1222.84,-111.35 1228.84,-111.35 1234.84,-117.35 1234.84,-123.35 1234.84,-123.35 1234.84,-137.75 1234.84,-137.75 1234.84,-143.75 1228.84,-149.75 1222.84,-149.75"/>
<text xml:space="preserve" text-anchor="middle" x="1157" y="-132.1" font-family="EB Garamond" font-size="11.00" fill="#1a1a1a">lab_info/_registry.yaml</text>
<text xml:space="preserve" text-anchor="middle" x="1157" y="-120.1" font-family="EB Garamond" font-size="11.00" fill="#1a1a1a">(centre registry, registrars:)</text>
</g>
<!-- oracle&#45;&gt;registry -->
<g id="edge14" class="edge">
<title>oracle&#45;&gt;registry</title>
<path fill="none" stroke="#5b5b5b" stroke-dasharray="1,5" d="M409,-229.13C409,-196.25 409,-131 409,-131 409,-131 1070.2,-131 1070.2,-131"/>
<polygon fill="#5b5b5b" stroke="#5b5b5b" points="1070.2,-133.45 1077.2,-131 1070.2,-128.55 1070.2,-133.45"/>
</g>
<!-- bookworm -->
<g id="node8" class="node">
<title>bookworm</title>
<path fill="#ffffff" stroke="#c7bfb1" d="M535.84,-265.6C535.84,-265.6 482.17,-265.6 482.17,-265.6 476.17,-265.6 470.17,-259.6 470.17,-253.6 470.17,-253.6 470.17,-241.6 470.17,-241.6 470.17,-235.6 476.17,-229.6 482.17,-229.6 482.17,-229.6 535.84,-229.6 535.84,-229.6 541.84,-229.6 547.84,-235.6 547.84,-241.6 547.84,-241.6 547.84,-253.6 547.84,-253.6 547.84,-259.6 541.84,-265.6 535.84,-265.6"/>
<text xml:space="preserve" text-anchor="middle" x="509" y="-243.15" font-family="EB Garamond" font-size="11.00" fill="#1a1a1a">Bookworm</text>
</g>
<!-- blacksmith -->
<g id="node9" class="node">
<title>blacksmith</title>
<path fill="#ffffff" stroke="#c7bfb1" d="M645.84,-265.6C645.84,-265.6 592.16,-265.6 592.16,-265.6 586.16,-265.6 580.16,-259.6 580.16,-253.6 580.16,-253.6 580.16,-241.6 580.16,-241.6 580.16,-235.6 586.16,-229.6 592.16,-229.6 592.16,-229.6 645.84,-229.6 645.84,-229.6 651.84,-229.6 657.84,-235.6 657.84,-241.6 657.84,-241.6 657.84,-253.6 657.84,-253.6 657.84,-259.6 651.84,-265.6 645.84,-265.6"/>
<text xml:space="preserve" text-anchor="middle" x="619" y="-243.15" font-family="EB Garamond" font-size="11.00" fill="#1a1a1a">Blacksmith</text>
</g>
<!-- artist -->
<g id="node10" class="node">
<title>artist</title>
<path fill="#ffffff" stroke="#c7bfb1" d="M732,-265.6C732,-265.6 702,-265.6 702,-265.6 696,-265.6 690,-259.6 690,-253.6 690,-253.6 690,-241.6 690,-241.6 690,-235.6 696,-229.6 702,-229.6 702,-229.6 732,-229.6 732,-229.6 738,-229.6 744,-235.6 744,-241.6 744,-241.6 744,-253.6 744,-253.6 744,-259.6 738,-265.6 732,-265.6"/>
<text xml:space="preserve" text-anchor="middle" x="717" y="-243.15" font-family="EB Garamond" font-size="11.00" fill="#1a1a1a">Artist</text>
</g>
<!-- adversary -->
<g id="node11" class="node">
<title>adversary</title>
<path fill="#ffffff" stroke="#c7bfb1" d="M838.34,-265.6C838.34,-265.6 787.66,-265.6 787.66,-265.6 781.66,-265.6 775.66,-259.6 775.66,-253.6 775.66,-253.6 775.66,-241.6 775.66,-241.6 775.66,-235.6 781.66,-229.6 787.66,-229.6 787.66,-229.6 838.34,-229.6 838.34,-229.6 844.34,-229.6 850.34,-235.6 850.34,-241.6 850.34,-241.6 850.34,-253.6 850.34,-253.6 850.34,-259.6 844.34,-265.6 838.34,-265.6"/>
<text xml:space="preserve" text-anchor="middle" x="813" y="-243.15" font-family="EB Garamond" font-size="11.00" fill="#1a1a1a">Adversary</text>
</g>
<!-- conscience -->
<g id="node12" class="node">
<title>conscience</title>
<path fill="#ffffff" stroke="#c7bfb1" d="M952.09,-265.6C952.09,-265.6 893.91,-265.6 893.91,-265.6 887.91,-265.6 881.91,-259.6 881.91,-253.6 881.91,-253.6 881.91,-241.6 881.91,-241.6 881.91,-235.6 887.91,-229.6 893.91,-229.6 893.91,-229.6 952.09,-229.6 952.09,-229.6 958.09,-229.6 964.09,-235.6 964.09,-241.6 964.09,-241.6 964.09,-253.6 964.09,-253.6 964.09,-259.6 958.09,-265.6 952.09,-265.6"/>
<text xml:space="preserve" text-anchor="middle" x="923" y="-243.15" font-family="EB Garamond" font-size="11.00" fill="#1a1a1a">Conscience</text>
</g>
<!-- saul -->
<g id="node13" class="node">
<title>saul</title>
<path fill="#ffffff" stroke="#c7bfb1" d="M1081.96,-265.6C1081.96,-265.6 1008.04,-265.6 1008.04,-265.6 1002.04,-265.6 996.04,-259.6 996.04,-253.6 996.04,-253.6 996.04,-241.6 996.04,-241.6 996.04,-235.6 1002.04,-229.6 1008.04,-229.6 1008.04,-229.6 1081.96,-229.6 1081.96,-229.6 1087.96,-229.6 1093.96,-235.6 1093.96,-241.6 1093.96,-241.6 1093.96,-253.6 1093.96,-253.6 1093.96,-259.6 1087.96,-265.6 1081.96,-265.6"/>
<text xml:space="preserve" text-anchor="middle" x="1045" y="-243.15" font-family="EB Garamond" font-size="11.00" fill="#1a1a1a">Saul Goodman</text>
</g>
<!-- medchem -->
<g id="node14" class="node">
<title>medchem</title>
<path fill="#ffffff" stroke="#c7bfb1" d="M1193.59,-266.8C1193.59,-266.8 1138.41,-266.8 1138.41,-266.8 1132.41,-266.8 1126.41,-260.8 1126.41,-254.8 1126.41,-254.8 1126.41,-240.4 1126.41,-240.4 1126.41,-234.4 1132.41,-228.4 1138.41,-228.4 1138.41,-228.4 1193.59,-228.4 1193.59,-228.4 1199.59,-228.4 1205.59,-234.4 1205.59,-240.4 1205.59,-240.4 1205.59,-254.8 1205.59,-254.8 1205.59,-260.8 1199.59,-266.8 1193.59,-266.8"/>
<text xml:space="preserve" text-anchor="middle" x="1166" y="-249.15" font-family="EB Garamond" font-size="11.00" fill="#1a1a1a">MedChem</text>
<text xml:space="preserve" text-anchor="middle" x="1166" y="-237.15" font-family="EB Garamond" font-size="11.00" fill="#1a1a1a">(chemistry)</text>
</g>
<!-- segmenter -->
<g id="node15" class="node">
<title>segmenter</title>
<path fill="#ffffff" stroke="#c7bfb1" d="M1304.59,-266.8C1304.59,-266.8 1249.41,-266.8 1249.41,-266.8 1243.41,-266.8 1237.41,-260.8 1237.41,-254.8 1237.41,-254.8 1237.41,-240.4 1237.41,-240.4 1237.41,-234.4 1243.41,-228.4 1249.41,-228.4 1249.41,-228.4 1304.59,-228.4 1304.59,-228.4 1310.59,-228.4 1316.59,-234.4 1316.59,-240.4 1316.59,-240.4 1316.59,-254.8 1316.59,-254.8 1316.59,-260.8 1310.59,-266.8 1304.59,-266.8"/>
<text xml:space="preserve" text-anchor="middle" x="1277" y="-249.15" font-family="EB Garamond" font-size="11.00" fill="#1a1a1a">Segmenter</text>
<text xml:space="preserve" text-anchor="middle" x="1277" y="-237.15" font-family="EB Garamond" font-size="11.00" fill="#1a1a1a">(imaging)</text>
</g>
<!-- cohort -->
<g id="node16" class="node">
<title>cohort</title>
<path fill="#ffffff" stroke="#c7bfb1" d="M1401.46,-266.8C1401.46,-266.8 1360.54,-266.8 1360.54,-266.8 1354.54,-266.8 1348.54,-260.8 1348.54,-254.8 1348.54,-254.8 1348.54,-240.4 1348.54,-240.4 1348.54,-234.4 1354.54,-228.4 1360.54,-228.4 1360.54,-228.4 1401.46,-228.4 1401.46,-228.4 1407.46,-228.4 1413.46,-234.4 1413.46,-240.4 1413.46,-240.4 1413.46,-254.8 1413.46,-254.8 1413.46,-260.8 1407.46,-266.8 1401.46,-266.8"/>
<text xml:space="preserve" text-anchor="middle" x="1381" y="-249.15" font-family="EB Garamond" font-size="11.00" fill="#1a1a1a">Cohort</text>
<text xml:space="preserve" text-anchor="middle" x="1381" y="-237.15" font-family="EB Garamond" font-size="11.00" fill="#1a1a1a">(clinical)</text>
</g>
<!-- lab_mgmt -->
<g id="node19" class="node">
<title>lab_mgmt</title>
<path fill="#ffffff" stroke="#c7bfb1" d="M1232.96,-54.4C1232.96,-54.4 1099.04,-54.4 1099.04,-54.4 1093.04,-54.4 1087.04,-48.4 1087.04,-42.4 1087.04,-42.4 1087.04,-28 1087.04,-28 1087.04,-22 1093.04,-16 1099.04,-16 1099.04,-16 1232.96,-16 1232.96,-16 1238.96,-16 1244.96,-22 1244.96,-28 1244.96,-28 1244.96,-42.4 1244.96,-42.4 1244.96,-48.4 1238.96,-54.4 1232.96,-54.4"/>
<text xml:space="preserve" text-anchor="middle" x="1166" y="-36.75" font-family="EB Garamond" font-size="11.00" fill="#1a1a1a">lab&#45;mgmt repo</text>
<text xml:space="preserve" text-anchor="middle" x="1166" y="-24.75" font-family="EB Garamond" font-size="11.00" fill="#1a1a1a">(charter, MEMBERS, audit)</text>
</g>
<!-- proj1&#45;&gt;lab_mgmt -->
<g id="edge8" class="edge">
<title>proj1&#45;&gt;lab_mgmt</title>
<path fill="none" stroke="#5b5b5b" d="M1543.12,-227.98C1543.12,-175.35 1543.12,-35 1543.12,-35 1543.12,-35 1253.57,-35 1253.57,-35"/>
<polygon fill="#5b5b5b" stroke="#5b5b5b" points="1253.57,-32.55 1246.57,-35 1253.57,-37.45 1253.57,-32.55"/>
<text xml:space="preserve" text-anchor="middle" x="1033.25" y="-126.88" font-family="Courier Prime" font-size="9.00" fill="#5b5b5b">charter</text>
</g>
<!-- proj_repo -->
<g id="node21" class="node">
<title>proj_repo</title>
<path fill="#ffffff" stroke="#c7bfb1" d="M1816.84,-149.75C1816.84,-149.75 1697.16,-149.75 1697.16,-149.75 1691.16,-149.75 1685.16,-143.75 1685.16,-137.75 1685.16,-137.75 1685.16,-123.35 1685.16,-123.35 1685.16,-117.35 1691.16,-111.35 1697.16,-111.35 1697.16,-111.35 1816.84,-111.35 1816.84,-111.35 1822.84,-111.35 1828.84,-117.35 1828.84,-123.35 1828.84,-123.35 1828.84,-137.75 1828.84,-137.75 1828.84,-143.75 1822.84,-149.75 1816.84,-149.75"/>
<text xml:space="preserve" text-anchor="middle" x="1757" y="-132.1" font-family="EB Garamond" font-size="11.00" fill="#1a1a1a">project repo</text>
<text xml:space="preserve" text-anchor="middle" x="1757" y="-120.1" font-family="EB Garamond" font-size="11.00" fill="#1a1a1a">(per&#45;project, GH&#45;hosted)</text>
</g>
<!-- proj1&#45;&gt;proj_repo -->
<g id="edge9" class="edge">
<title>proj1&#45;&gt;proj_repo</title>
<path fill="none" stroke="#5b5b5b" d="M1567.6,-227.94C1567.6,-224.5 1567.6,-222 1567.6,-222 1567.6,-222 1708.19,-222 1708.19,-222 1708.19,-222 1708.19,-158.46 1708.19,-158.46"/>
<polygon fill="#5b5b5b" stroke="#5b5b5b" points="1710.64,-158.46 1708.19,-151.46 1705.74,-158.46 1710.64,-158.46"/>
<text xml:space="preserve" text-anchor="middle" x="1729.25" y="-187.7" font-family="Courier Prime" font-size="9.00" fill="#5b5b5b">code/data</text>
</g>
<!-- lab_vm -->
<g id="node22" class="node">
<title>lab_vm</title>
<path fill="#ffffff" stroke="#c7bfb1" d="M1515.34,-148.55C1515.34,-148.55 1278.66,-148.55 1278.66,-148.55 1272.66,-148.55 1266.66,-142.55 1266.66,-136.55 1266.66,-136.55 1266.66,-124.55 1266.66,-124.55 1266.66,-118.55 1272.66,-112.55 1278.66,-112.55 1278.66,-112.55 1515.34,-112.55 1515.34,-112.55 1521.34,-112.55 1527.34,-118.55 1527.34,-124.55 1527.34,-124.55 1527.34,-136.55 1527.34,-136.55 1527.34,-142.55 1521.34,-148.55 1515.34,-148.55"/>
<text xml:space="preserve" text-anchor="middle" x="1397" y="-126.1" font-family="EB Garamond" font-size="11.00" fill="#1a1a1a">/data/lab_vm/{immutable,append_only}/&lt;project&gt;</text>
</g>
<!-- proj1&#45;&gt;lab_vm -->
<g id="edge10" class="edge">
<title>proj1&#45;&gt;lab_vm</title>
<path fill="none" stroke="#5b5b5b" d="M1486.19,-228.01C1486.19,-228.01 1486.19,-157.56 1486.19,-157.56"/>
<polygon fill="#5b5b5b" stroke="#5b5b5b" points="1488.64,-157.56 1486.19,-150.56 1483.74,-157.56 1488.64,-157.56"/>
<text xml:space="preserve" text-anchor="middle" x="1465.75" y="-187.7" font-family="Courier Prime" font-size="9.00" fill="#5b5b5b">immutable / append_only</text>
</g>
<!-- vault -->
<g id="node23" class="node">
<title>vault</title>
<path fill="#ffffff" stroke="#c7bfb1" d="M1641.09,-149.75C1641.09,-149.75 1570.91,-149.75 1570.91,-149.75 1564.91,-149.75 1558.91,-143.75 1558.91,-137.75 1558.91,-137.75 1558.91,-123.35 1558.91,-123.35 1558.91,-117.35 1564.91,-111.35 1570.91,-111.35 1570.91,-111.35 1641.09,-111.35 1641.09,-111.35 1647.09,-111.35 1653.09,-117.35 1653.09,-123.35 1653.09,-123.35 1653.09,-137.75 1653.09,-137.75 1653.09,-143.75 1647.09,-149.75 1641.09,-149.75"/>
<text xml:space="preserve" text-anchor="middle" x="1606" y="-132.1" font-family="EB Garamond" font-size="11.00" fill="#1a1a1a">Obsidian vault</text>
<text xml:space="preserve" text-anchor="middle" x="1606" y="-120.1" font-family="EB Garamond" font-size="11.00" fill="#1a1a1a">(one per user)</text>
</g>
<!-- proj1&#45;&gt;vault -->
<g id="edge11" class="edge">
<title>proj1&#45;&gt;vault</title>
<path fill="none" stroke="#5b5b5b" d="M1576.28,-228.01C1576.28,-228.01 1576.28,-158.72 1576.28,-158.72"/>
<polygon fill="#5b5b5b" stroke="#5b5b5b" points="1578.73,-158.72 1576.28,-151.72 1573.83,-158.72 1578.73,-158.72"/>
<text xml:space="preserve" text-anchor="middle" x="1614.62" y="-187.7" font-family="Courier Prime" font-size="9.00" fill="#5b5b5b">lab notebook</text>
</g>
<!-- proj2 -->
<g id="node18" class="node">
<title>proj2</title>
<path fill="#ffffff" stroke="#c7bfb1" d="M1719.21,-266.8C1719.21,-266.8 1628.79,-266.8 1628.79,-266.8 1622.79,-266.8 1616.79,-260.8 1616.79,-254.8 1616.79,-254.8 1616.79,-240.4 1616.79,-240.4 1616.79,-234.4 1622.79,-228.4 1628.79,-228.4 1628.79,-228.4 1719.21,-228.4 1719.21,-228.4 1725.21,-228.4 1731.21,-234.4 1731.21,-240.4 1731.21,-240.4 1731.21,-254.8 1731.21,-254.8 1731.21,-260.8 1725.21,-266.8 1719.21,-266.8"/>
<text xml:space="preserve" text-anchor="middle" x="1674" y="-249.15" font-family="EB Garamond" font-size="11.00" fill="#1a1a1a">drug_discovery_litl</text>
<text xml:space="preserve" text-anchor="middle" x="1674" y="-237.15" font-family="EB Garamond" font-size="11.00" fill="#1a1a1a">(g1 + g4)</text>
</g>
<!-- registry&#45;&gt;lab_mgmt -->
<g id="edge13" class="edge">
<title>registry&#45;&gt;lab_mgmt</title>
<path fill="none" stroke="#5b5b5b" stroke-dasharray="5,2" d="M1160.94,-111.25C1160.94,-111.25 1160.94,-63.31 1160.94,-63.31"/>
<polygon fill="#5b5b5b" stroke="#5b5b5b" points="1163.39,-63.31 1160.94,-56.31 1158.49,-63.31 1163.39,-63.31"/>
<text xml:space="preserve" text-anchor="middle" x="1178.25" y="-82.8" font-family="Courier Prime" font-size="9.00" fill="#5b5b5b">points to</text>
</g>
<!-- github -->
<g id="node24" class="node">
<title>github</title>
<path fill="#eef2ff" stroke="#c7bfb1" d="M1055.21,-56.8C1055.21,-59.45 1025.53,-61.6 989,-61.6 952.47,-61.6 922.79,-59.45 922.79,-56.8 922.79,-56.8 922.79,-13.6 922.79,-13.6 922.79,-10.95 952.47,-8.8 989,-8.8 1025.53,-8.8 1055.21,-10.95 1055.21,-13.6 1055.21,-13.6 1055.21,-56.8 1055.21,-56.8"/>
<path fill="none" stroke="#c7bfb1" d="M1055.21,-56.8C1055.21,-54.15 1025.53,-52 989,-52 952.47,-52 922.79,-54.15 922.79,-56.8"/>
<text xml:space="preserve" text-anchor="middle" x="989" y="-36.75" font-family="EB Garamond" font-size="11.00" fill="#1a1a1a">GitHub orgs</text>
<text xml:space="preserve" text-anchor="middle" x="989" y="-24.75" font-family="EB Garamond" font-size="11.00" fill="#1a1a1a">hallettmiket / &lt;centre&gt;</text>
</g>
<!-- proj_repo&#45;&gt;github -->
<g id="edge12" class="edge">
<title>proj_repo&#45;&gt;github</title>
<path fill="none" stroke="#5b5b5b" d="M1757,-111.11C1757,-89.62 1757,-58 1757,-58 1757,-58 1063.99,-58 1063.99,-58"/>
<polygon fill="#5b5b5b" stroke="#5b5b5b" points="1063.99,-55.55 1056.99,-58 1063.99,-60.45 1063.99,-55.55"/>
<text xml:space="preserve" text-anchor="middle" x="1083.12" y="-82.8" font-family="Courier Prime" font-size="9.00" fill="#5b5b5b">push</text>
</g>
<!-- slack -->
<g id="node25" class="node">
<title>slack</title>
<path fill="#eef2ff" stroke="#c7bfb1" d="M470.46,-417.3C470.46,-419.95 446.5,-422.1 417,-422.1 387.5,-422.1 363.54,-419.95 363.54,-417.3 363.54,-417.3 363.54,-374.1 363.54,-374.1 363.54,-371.45 387.5,-369.3 417,-369.3 446.5,-369.3 470.46,-371.45 470.46,-374.1 470.46,-374.1 470.46,-417.3 470.46,-417.3"/>
<path fill="none" stroke="#c7bfb1" d="M470.46,-417.3C470.46,-414.65 446.5,-412.5 417,-412.5 387.5,-412.5 363.54,-414.65 363.54,-417.3"/>
<text xml:space="preserve" text-anchor="middle" x="417" y="-397.25" font-family="EB Garamond" font-size="11.00" fill="#1a1a1a">Slack workspace</text>
<text xml:space="preserve" text-anchor="middle" x="417" y="-385.25" font-family="EB Garamond" font-size="11.00" fill="#1a1a1a">(mirror + distill)</text>
</g>
<!-- slack&#45;&gt;oracle -->
<g id="edge16" class="edge">
<title>slack&#45;&gt;oracle</title>
<path fill="none" stroke="#5b5b5b" stroke-dasharray="1,5" d="M418.57,-368.88C418.57,-368.88 418.57,-274.33 418.57,-274.33"/>
<polygon fill="#5b5b5b" stroke="#5b5b5b" points="421.02,-274.33 418.57,-267.33 416.12,-274.33 421.02,-274.33"/>
<text xml:space="preserve" text-anchor="middle" x="429" y="-340.75" font-family="Courier Prime" font-size="9.00" fill="#5b5b5b">mirror</text>
</g>
<!-- mcp -->
<g id="node26" class="node">
<title>mcp</title>
<path fill="#eef2ff" stroke="#c7bfb1" d="M683.21,-417.3C683.21,-419.95 642.78,-422.1 593,-422.1 543.22,-422.1 502.79,-419.95 502.79,-417.3 502.79,-417.3 502.79,-374.1 502.79,-374.1 502.79,-371.45 543.22,-369.3 593,-369.3 642.78,-369.3 683.21,-371.45 683.21,-374.1 683.21,-374.1 683.21,-417.3 683.21,-417.3"/>
<path fill="none" stroke="#c7bfb1" d="M683.21,-417.3C683.21,-414.65 642.78,-412.5 593,-412.5 543.22,-412.5 502.79,-414.65 502.79,-417.3"/>
<text xml:space="preserve" text-anchor="middle" x="593" y="-397.25" font-family="EB Garamond" font-size="11.00" fill="#1a1a1a">MCP servers</text>
<text xml:space="preserve" text-anchor="middle" x="593" y="-385.25" font-family="EB Garamond" font-size="11.00" fill="#1a1a1a">ClinicalTrials / PubMed / bioRxiv</text>
</g>
<!-- mcp&#45;&gt;bookworm -->
<g id="edge17" class="edge">
<title>mcp&#45;&gt;bookworm</title>
<path fill="none" stroke="#5b5b5b" stroke-dasharray="1,5" d="M525.31,-368.88C525.31,-368.88 525.31,-274.33 525.31,-274.33"/>
<polygon fill="#5b5b5b" stroke="#5b5b5b" points="527.76,-274.33 525.31,-267.33 522.86,-274.33 527.76,-274.33"/>
<text xml:space="preserve" text-anchor="middle" x="608.38" y="-340.75" font-family="Courier Prime" font-size="9.00" fill="#5b5b5b">queries</text>
</g>
<!-- vscode -->
<g id="node27" class="node">
<title>vscode</title>
<path fill="#fff1db" stroke="#c7bfb1" d="M1982.32,-253.35C1982.32,-253.35 1945.96,-273.21 1945.96,-273.21 1940.69,-276.08 1929.43,-278.96 1923.43,-278.96 1923.43,-278.96 1832.57,-278.96 1832.57,-278.96 1826.57,-278.96 1815.31,-276.08 1810.04,-273.21 1810.04,-273.21 1773.68,-253.35 1773.68,-253.35 1768.41,-250.48 1768.41,-244.73 1773.68,-241.85 1773.68,-241.85 1810.04,-222 1810.04,-222 1815.31,-219.13 1826.57,-216.25 1832.57,-216.25 1832.57,-216.25 1923.43,-216.25 1923.43,-216.25 1929.43,-216.25 1940.69,-219.13 1945.96,-222 1945.96,-222 1982.32,-241.85 1982.32,-241.85 1987.59,-244.73 1987.59,-250.48 1982.32,-253.35"/>
<text xml:space="preserve" text-anchor="middle" x="1878" y="-249.15" font-family="EB Garamond" font-size="11.00" fill="#1a1a1a">VSCode + CC sessions</text>
<text xml:space="preserve" text-anchor="middle" x="1878" y="-237.15" font-family="EB Garamond" font-size="11.00" fill="#1a1a1a">(per project)</text>
</g>
<!-- vscode&#45;&gt;proj_repo -->
<g id="edge15" class="edge">
<title>vscode&#45;&gt;proj_repo</title>
<path fill="none" stroke="#5b5b5b" stroke-dasharray="1,5" d="M1795.99,-229.31C1795.99,-229.31 1795.99,-158.39 1795.99,-158.39"/>
<polygon fill="#5b5b5b" stroke="#5b5b5b" points="1798.44,-158.39 1795.99,-151.39 1793.54,-158.39 1798.44,-158.39"/>
<text xml:space="preserve" text-anchor="middle" x="1885.5" y="-187.7" font-family="Courier Prime" font-size="9.00" fill="#5b5b5b">dev</text>
</g>
</g>
</svg>
