<?xml version="1.0" encoding="UTF-8" standalone="no"?>
<!DOCTYPE svg PUBLIC "-//W3C//DTD SVG 1.1//EN"
 "http://www.w3.org/Graphics/SVG/1.1/DTD/svg11.dtd">
<!-- Generated by graphviz version 14.1.5 (20260411.2331)
 -->
<!-- Title: wigamig_system_map Pages: 1 -->
<svg width="1977pt" height="671pt"
 viewBox="0.00 0.00 1977.00 671.00" xmlns="http://www.w3.org/2000/svg" xmlns:xlink="http://www.w3.org/1999/xlink">
<g id="graph0" class="graph" transform="scale(1 1) rotate(0) translate(4 667.4)">
<title>wigamig_system_map</title>
<polygon fill="#faf8f5" stroke="none" points="-4,4 -4,-667.4 1972.86,-667.4 1972.86,4 -4,4"/>
<text xml:space="preserve" text-anchor="start" x="888.8" y="-643.3" font-family="EB Garamond" font-weight="bold" font-size="18.00" fill="#201436">wigamig · system map</text>
<text xml:space="preserve" text-anchor="start" x="877.93" y="-631.95" font-family="EB Garamond" font-size="11.00" fill="#201436">v1.0.0 · bioconvergence centre infrastructure</text>
<g id="clust1" class="cluster">
<title>cluster_launch</title>
<path fill="#f1ece3" stroke="#4f2683" stroke-dasharray="5,2" d="M20,-220.4C20,-220.4 312,-220.4 312,-220.4 318,-220.4 324,-226.4 324,-232.4 324,-232.4 324,-606.4 324,-606.4 324,-612.4 318,-618.4 312,-618.4 312,-618.4 20,-618.4 20,-618.4 14,-618.4 8,-612.4 8,-606.4 8,-606.4 8,-232.4 8,-232.4 8,-226.4 14,-220.4 20,-220.4"/>
<text xml:space="preserve" text-anchor="start" x="111.62" y="-604" font-family="EB Garamond" font-weight="bold" font-size="12.00" fill="#4f2683">1. Identity &amp; launch</text>
</g>
<g id="clust2" class="cluster">
<title>cluster_tiers</title>
<path fill="#f1ece3" stroke="#4f2683" stroke-dasharray="5,2" d="M352,-212.4C352,-212.4 1711,-212.4 1711,-212.4 1717,-212.4 1723,-218.4 1723,-224.4 1723,-224.4 1723,-319.55 1723,-319.55 1723,-325.55 1717,-331.55 1711,-331.55 1711,-331.55 352,-331.55 352,-331.55 346,-331.55 340,-325.55 340,-319.55 340,-319.55 340,-224.4 340,-224.4 340,-218.4 346,-212.4 352,-212.4"/>
<text xml:space="preserve" text-anchor="start" x="984.25" y="-317.15" font-family="EB Garamond" font-weight="bold" font-size="12.00" fill="#4f2683">2. The three tiers</text>
</g>
<g id="clust3" class="cluster">
<title>cluster_commons</title>
<path fill="#e9defa" stroke="#6f4da8" d="M360,-221.6C360,-221.6 1066,-221.6 1066,-221.6 1072,-221.6 1078,-227.6 1078,-233.6 1078,-233.6 1078,-289.6 1078,-289.6 1078,-295.6 1072,-301.6 1066,-301.6 1066,-301.6 360,-301.6 360,-301.6 354,-301.6 348,-295.6 348,-289.6 348,-289.6 348,-233.6 348,-233.6 348,-227.6 354,-221.6 360,-221.6"/>
<text xml:space="preserve" text-anchor="start" x="666.88" y="-288.15" font-family="EB Garamond" font-weight="bold" font-size="11.00" fill="#4f2683">Tier 1 · Commons</text>
<text xml:space="preserve" text-anchor="start" x="667.25" y="-279.05" font-family="EB Garamond" font-size="9.00" fill="#4f2683">~/.claude/ via symlinks</text>
</g>
<g id="clust4" class="cluster">
<title>cluster_guilds</title>
<path fill="#ffe9cc" stroke="#f0a757" d="M1106,-220.4C1106,-220.4 1385,-220.4 1385,-220.4 1391,-220.4 1397,-226.4 1397,-232.4 1397,-232.4 1397,-290.8 1397,-290.8 1397,-296.8 1391,-302.8 1385,-302.8 1385,-302.8 1106,-302.8 1106,-302.8 1100,-302.8 1094,-296.8 1094,-290.8 1094,-290.8 1094,-232.4 1094,-232.4 1094,-226.4 1100,-220.4 1106,-220.4"/>
<text xml:space="preserve" text-anchor="start" x="1209.5" y="-289.35" font-family="EB Garamond" font-weight="bold" font-size="11.00" fill="#4f2683">Tier 2 · Guilds</text>
<text xml:space="preserve" text-anchor="start" x="1198.62" y="-280.25" font-family="EB Garamond" font-size="9.00" fill="#4f2683">guilds/&lt;group&gt;/agents/</text>
</g>
<g id="clust5" class="cluster">
<title>cluster_projects</title>
<path fill="#e1ebd6" stroke="#4f6b3a" d="M1425,-220.4C1425,-220.4 1703,-220.4 1703,-220.4 1709,-220.4 1715,-226.4 1715,-232.4 1715,-232.4 1715,-290.8 1715,-290.8 1715,-296.8 1709,-302.8 1703,-302.8 1703,-302.8 1425,-302.8 1425,-302.8 1419,-302.8 1413,-296.8 1413,-290.8 1413,-290.8 1413,-232.4 1413,-232.4 1413,-226.4 1419,-220.4 1425,-220.4"/>
<text xml:space="preserve" text-anchor="start" x="1492" y="-289.35" font-family="EB Garamond" font-weight="bold" font-size="11.00" fill="#4f2683">Tier 3 · Project namespaces</text>
<text xml:space="preserve" text-anchor="start" x="1528.75" y="-280.25" font-family="EB Garamond" font-size="9.00" fill="#4f2683">projects/&lt;name&gt;/</text>
</g>
<g id="clust6" class="cluster">
<title>cluster_data</title>
<path fill="#f1ece3" stroke="#4f2683" stroke-dasharray="5,2" d="M1118,-8C1118,-8 1800,-8 1800,-8 1806,-8 1812,-14 1812,-20 1812,-20 1812,-166.5 1812,-166.5 1812,-172.5 1806,-178.5 1800,-178.5 1800,-178.5 1118,-178.5 1118,-178.5 1112,-178.5 1106,-172.5 1106,-166.5 1106,-166.5 1106,-20 1106,-20 1106,-14 1112,-8 1118,-8"/>
<text xml:space="preserve" text-anchor="start" x="1390" y="-164.1" font-family="EB Garamond" font-weight="bold" font-size="12.00" fill="#4f2683">3. Per&#45;project data plane</text>
</g>
<!-- icon -->
<g id="node1" class="node">
<title>icon</title>
<path fill="#ffe9cc" stroke="#f0a757" d="M226.09,-589.65C226.09,-589.65 149.91,-589.65 149.91,-589.65 143.91,-589.65 137.91,-583.65 137.91,-577.65 137.91,-577.65 137.91,-563.25 137.91,-563.25 137.91,-557.25 143.91,-551.25 149.91,-551.25 149.91,-551.25 226.09,-551.25 226.09,-551.25 232.09,-551.25 238.09,-557.25 238.09,-563.25 238.09,-563.25 238.09,-577.65 238.09,-577.65 238.09,-583.65 232.09,-589.65 226.09,-589.65"/>
<text xml:space="preserve" text-anchor="middle" x="188" y="-572" font-family="EB Garamond" font-size="11.00" fill="#1a1a1a">Murmurent</text>
<text xml:space="preserve" text-anchor="middle" x="188" y="-560" font-family="EB Garamond" font-size="11.00" fill="#1a1a1a">Dashboard.app</text>
</g>
<!-- launcher -->
<g id="node2" class="node">
<title>launcher</title>
<path fill="#ffffff" stroke="#c7bfb1" d="M239.96,-510.25C239.96,-510.25 136.04,-510.25 136.04,-510.25 130.04,-510.25 124.04,-504.25 124.04,-498.25 124.04,-498.25 124.04,-483.85 124.04,-483.85 124.04,-477.85 130.04,-471.85 136.04,-471.85 136.04,-471.85 239.96,-471.85 239.96,-471.85 245.96,-471.85 251.96,-477.85 251.96,-483.85 251.96,-483.85 251.96,-498.25 251.96,-498.25 251.96,-504.25 245.96,-510.25 239.96,-510.25"/>
<text xml:space="preserve" text-anchor="middle" x="188" y="-492.6" font-family="EB Garamond" font-size="11.00" fill="#1a1a1a">zsh launcher</text>
<text xml:space="preserve" text-anchor="middle" x="188" y="-480.6" font-family="EB Garamond" font-size="11.00" fill="#1a1a1a">(create_mac_app.sh)</text>
</g>
<!-- icon&#45;&gt;launcher -->
<g id="edge1" class="edge">
<title>icon&#45;&gt;launcher</title>
<path fill="none" stroke="#5b5b5b" d="M188,-550.83C188,-550.83 188,-519.24 188,-519.24"/>
<polygon fill="#5b5b5b" stroke="#5b5b5b" points="190.45,-519.24 188,-512.24 185.55,-519.24 190.45,-519.24"/>
</g>
<!-- uvicorn -->
<g id="node3" class="node">
<title>uvicorn</title>
<path fill="#ffffff" stroke="#c7bfb1" d="M156.21,-414.9C156.21,-414.9 89.79,-414.9 89.79,-414.9 83.79,-414.9 77.79,-408.9 77.79,-402.9 77.79,-402.9 77.79,-388.5 77.79,-388.5 77.79,-382.5 83.79,-376.5 89.79,-376.5 89.79,-376.5 156.21,-376.5 156.21,-376.5 162.21,-376.5 168.21,-382.5 168.21,-388.5 168.21,-388.5 168.21,-402.9 168.21,-402.9 168.21,-408.9 162.21,-414.9 156.21,-414.9"/>
<text xml:space="preserve" text-anchor="middle" x="123" y="-397.25" font-family="EB Garamond" font-size="11.00" fill="#1a1a1a">uvicorn :8770</text>
<text xml:space="preserve" text-anchor="middle" x="123" y="-385.25" font-family="EB Garamond" font-size="11.00" fill="#1a1a1a">FastAPI app</text>
</g>
<!-- launcher&#45;&gt;uvicorn -->
<g id="edge2" class="edge">
<title>launcher&#45;&gt;uvicorn</title>
<path fill="none" stroke="#5b5b5b" d="M146.12,-471.76C146.12,-471.76 146.12,-423.81 146.12,-423.81"/>
<polygon fill="#5b5b5b" stroke="#5b5b5b" points="148.58,-423.81 146.13,-416.81 143.68,-423.81 148.58,-423.81"/>
</g>
<!-- sentinel_user -->
<g id="node4" class="node">
<title>sentinel_user</title>
<polygon fill="#fff8e6" stroke="#c7bfb1" points="301.46,-414.9 200.54,-414.9 200.54,-376.5 307.46,-376.5 307.46,-408.9 301.46,-414.9"/>
<polyline fill="none" stroke="#c7bfb1" points="301.46,-414.9 301.46,-408.9"/>
<polyline fill="none" stroke="#c7bfb1" points="307.46,-408.9 301.46,-408.9"/>
<text xml:space="preserve" text-anchor="middle" x="254" y="-397.25" font-family="EB Garamond" font-size="11.00" fill="#1a1a1a">~/.wigamig/user</text>
<text xml:space="preserve" text-anchor="middle" x="254" y="-385.25" font-family="EB Garamond" font-size="11.00" fill="#1a1a1a">(saved netname)</text>
</g>
<!-- launcher&#45;&gt;sentinel_user -->
<g id="edge3" class="edge">
<title>launcher&#45;&gt;sentinel_user</title>
<path fill="none" stroke="#5b5b5b" stroke-dasharray="5,2" d="M226.25,-471.76C226.25,-471.76 226.25,-423.81 226.25,-423.81"/>
<polygon fill="#5b5b5b" stroke="#5b5b5b" points="228.7,-423.81 226.25,-416.81 223.8,-423.81 228.7,-423.81"/>
<text xml:space="preserve" text-anchor="middle" x="241.62" y="-443.3" font-family="Courier Prime" font-size="9.00" fill="#5b5b5b">reads</text>
</g>
<!-- sentinel_reg -->
<g id="node5" class="node">
<title>sentinel_reg</title>
<polygon fill="#fff8e6" stroke="#c7bfb1" points="131.59,-266.8 16.41,-266.8 16.41,-228.4 137.59,-228.4 137.59,-260.8 131.59,-266.8"/>
<polyline fill="none" stroke="#c7bfb1" points="131.59,-266.8 131.59,-260.8"/>
<polyline fill="none" stroke="#c7bfb1" points="137.59,-260.8 131.59,-260.8"/>
<text xml:space="preserve" text-anchor="middle" x="77" y="-249.15" font-family="EB Garamond" font-size="11.00" fill="#1a1a1a">~/.wigamig/registrar</text>
<text xml:space="preserve" text-anchor="middle" x="77" y="-237.15" font-family="EB Garamond" font-size="11.00" fill="#1a1a1a">(legacy sentinel)</text>
</g>
<!-- uvicorn&#45;&gt;sentinel_reg -->
<g id="edge5" class="edge">
<title>uvicorn&#45;&gt;sentinel_reg</title>
<path fill="none" stroke="#5b5b5b" stroke-dasharray="5,2" d="M107.69,-376.04C107.69,-376.04 107.69,-275.39 107.69,-275.39"/>
<polygon fill="#5b5b5b" stroke="#5b5b5b" points="110.14,-275.39 107.69,-268.39 105.24,-275.39 110.14,-275.39"/>
<text xml:space="preserve" text-anchor="middle" x="117.5" y="-340.75" font-family="Courier Prime" font-size="9.00" fill="#5b5b5b">reads (fallback)</text>
</g>
<!-- audit -->
<g id="node6" class="node">
<title>audit</title>
<polygon fill="#fff8e6" stroke="#c7bfb1" points="309.96,-266.8 170.04,-266.8 170.04,-228.4 315.96,-228.4 315.96,-260.8 309.96,-266.8"/>
<polyline fill="none" stroke="#c7bfb1" points="309.96,-266.8 309.96,-260.8"/>
<polyline fill="none" stroke="#c7bfb1" points="315.96,-260.8 309.96,-260.8"/>
<text xml:space="preserve" text-anchor="middle" x="243" y="-249.15" font-family="EB Garamond" font-size="11.00" fill="#1a1a1a">~/.wigamig/role_audit.log</text>
<text xml:space="preserve" text-anchor="middle" x="243" y="-237.15" font-family="EB Garamond" font-size="11.00" fill="#1a1a1a">(append&#45;only)</text>
</g>
<!-- uvicorn&#45;&gt;audit -->
<g id="edge4" class="edge">
<title>uvicorn&#45;&gt;audit</title>
<path fill="none" stroke="#5b5b5b" stroke-dasharray="5,2" d="M145.24,-376.09C145.24,-335.91 145.24,-248 145.24,-248 145.24,-248 161.14,-248 161.14,-248"/>
<polygon fill="#5b5b5b" stroke="#5b5b5b" points="161.14,-250.45 168.14,-248 161.14,-245.55 161.14,-250.45"/>
<text xml:space="preserve" text-anchor="middle" x="225" y="-340.75" font-family="Courier Prime" font-size="9.00" fill="#5b5b5b">appends</text>
</g>
<!-- oracle -->
<g id="node7" class="node">
<title>oracle</title>
<path fill="#ffffff" stroke="#c7bfb1" d="M401.71,-265.6C401.71,-265.6 368.29,-265.6 368.29,-265.6 362.29,-265.6 356.29,-259.6 356.29,-253.6 356.29,-253.6 356.29,-241.6 356.29,-241.6 356.29,-235.6 362.29,-229.6 368.29,-229.6 368.29,-229.6 401.71,-229.6 401.71,-229.6 407.71,-229.6 413.71,-235.6 413.71,-241.6 413.71,-241.6 413.71,-253.6 413.71,-253.6 413.71,-259.6 407.71,-265.6 401.71,-265.6"/>
<text xml:space="preserve" text-anchor="middle" x="385" y="-243.15" font-family="EB Garamond" font-size="11.00" fill="#1a1a1a">Oracle</text>
</g>
<!-- uvicorn&#45;&gt;oracle -->
<g id="edge6" class="edge">
<title>uvicorn&#45;&gt;oracle</title>
<path fill="none" stroke="#5b5b5b" stroke-dasharray="1,5" d="M152.9,-376.03C152.9,-350.45 152.9,-309 152.9,-309 152.9,-309 375.43,-309 375.43,-309 375.43,-309 375.43,-274.54 375.43,-274.54"/>
<polygon fill="#5b5b5b" stroke="#5b5b5b" points="377.88,-274.54 375.43,-267.54 372.98,-274.54 377.88,-274.54"/>
<text xml:space="preserve" text-anchor="middle" x="317.75" y="-340.75" font-family="Courier Prime" font-size="9.00" fill="#5b5b5b">reads agents/</text>
</g>
<!-- proj1 -->
<g id="node17" class="node">
<title>proj1</title>
<path fill="#ffffff" stroke="#c7bfb1" d="M1548.96,-266.8C1548.96,-266.8 1433.04,-266.8 1433.04,-266.8 1427.04,-266.8 1421.04,-260.8 1421.04,-254.8 1421.04,-254.8 1421.04,-240.4 1421.04,-240.4 1421.04,-234.4 1427.04,-228.4 1433.04,-228.4 1433.04,-228.4 1548.96,-228.4 1548.96,-228.4 1554.96,-228.4 1560.96,-234.4 1560.96,-240.4 1560.96,-240.4 1560.96,-254.8 1560.96,-254.8 1560.96,-260.8 1554.96,-266.8 1548.96,-266.8"/>
<text xml:space="preserve" text-anchor="middle" x="1491" y="-249.15" font-family="EB Garamond" font-size="11.00" fill="#1a1a1a">dcis_imaging_genomics</text>
<text xml:space="preserve" text-anchor="middle" x="1491" y="-237.15" font-family="EB Garamond" font-size="11.00" fill="#1a1a1a">(g2 + g3 + g5)</text>
</g>
<!-- uvicorn&#45;&gt;proj1 -->
<g id="edge7" class="edge">
<title>uvicorn&#45;&gt;proj1</title>
<path fill="none" stroke="#5b5b5b" stroke-dasharray="1,5" d="M160.55,-376.19C160.55,-359.79 160.55,-339 160.55,-339 160.55,-339 1491,-339 1491,-339 1491,-339 1491,-275.5 1491,-275.5"/>
<polygon fill="#5b5b5b" stroke="#5b5b5b" points="1493.45,-275.5 1491,-268.5 1488.55,-275.5 1493.45,-275.5"/>
<text xml:space="preserve" text-anchor="middle" x="493" y="-340.75" font-family="Courier Prime" font-size="9.00" fill="#5b5b5b">renders dashboard</text>
</g>
<!-- registry -->
<g id="node20" class="node">
<title>registry</title>
<path fill="#ffffff" stroke="#c7bfb1" d="M1257.84,-149.75C1257.84,-149.75 1126.16,-149.75 1126.16,-149.75 1120.16,-149.75 1114.16,-143.75 1114.16,-137.75 1114.16,-137.75 1114.16,-123.35 1114.16,-123.35 1114.16,-117.35 1120.16,-111.35 1126.16,-111.35 1126.16,-111.35 1257.84,-111.35 1257.84,-111.35 1263.84,-111.35 1269.84,-117.35 1269.84,-123.35 1269.84,-123.35 1269.84,-137.75 1269.84,-137.75 1269.84,-143.75 1263.84,-149.75 1257.84,-149.75"/>
<text xml:space="preserve" text-anchor="middle" x="1192" y="-132.1" font-family="EB Garamond" font-size="11.00" fill="#1a1a1a">lab_info/_registry.yaml</text>
<text xml:space="preserve" text-anchor="middle" x="1192" y="-120.1" font-family="EB Garamond" font-size="11.00" fill="#1a1a1a">(centre registry, registrars:)</text>
</g>
<!-- oracle&#45;&gt;registry -->
<g id="edge14" class="edge">
<title>oracle&#45;&gt;registry</title>
<path fill="none" stroke="#5b5b5b" stroke-dasharray="1,5" d="M385,-229.13C385,-196.25 385,-131 385,-131 385,-131 1105.37,-131 1105.37,-131"/>
<polygon fill="#5b5b5b" stroke="#5b5b5b" points="1105.37,-133.45 1112.37,-131 1105.37,-128.55 1105.37,-133.45"/>
</g>
<!-- bookworm -->
<g id="node8" class="node">
<title>bookworm</title>
<path fill="#ffffff" stroke="#c7bfb1" d="M511.84,-265.6C511.84,-265.6 458.17,-265.6 458.17,-265.6 452.17,-265.6 446.17,-259.6 446.17,-253.6 446.17,-253.6 446.17,-241.6 446.17,-241.6 446.17,-235.6 452.17,-229.6 458.17,-229.6 458.17,-229.6 511.84,-229.6 511.84,-229.6 517.84,-229.6 523.84,-235.6 523.84,-241.6 523.84,-241.6 523.84,-253.6 523.84,-253.6 523.84,-259.6 517.84,-265.6 511.84,-265.6"/>
<text xml:space="preserve" text-anchor="middle" x="485" y="-243.15" font-family="EB Garamond" font-size="11.00" fill="#1a1a1a">Bookworm</text>
</g>
<!-- blacksmith -->
<g id="node9" class="node">
<title>blacksmith</title>
<path fill="#ffffff" stroke="#c7bfb1" d="M621.84,-265.6C621.84,-265.6 568.16,-265.6 568.16,-265.6 562.16,-265.6 556.16,-259.6 556.16,-253.6 556.16,-253.6 556.16,-241.6 556.16,-241.6 556.16,-235.6 562.16,-229.6 568.16,-229.6 568.16,-229.6 621.84,-229.6 621.84,-229.6 627.84,-229.6 633.84,-235.6 633.84,-241.6 633.84,-241.6 633.84,-253.6 633.84,-253.6 633.84,-259.6 627.84,-265.6 621.84,-265.6"/>
<text xml:space="preserve" text-anchor="middle" x="595" y="-243.15" font-family="EB Garamond" font-size="11.00" fill="#1a1a1a">Blacksmith</text>
</g>
<!-- artist -->
<g id="node10" class="node">
<title>artist</title>
<path fill="#ffffff" stroke="#c7bfb1" d="M708,-265.6C708,-265.6 678,-265.6 678,-265.6 672,-265.6 666,-259.6 666,-253.6 666,-253.6 666,-241.6 666,-241.6 666,-235.6 672,-229.6 678,-229.6 678,-229.6 708,-229.6 708,-229.6 714,-229.6 720,-235.6 720,-241.6 720,-241.6 720,-253.6 720,-253.6 720,-259.6 714,-265.6 708,-265.6"/>
<text xml:space="preserve" text-anchor="middle" x="693" y="-243.15" font-family="EB Garamond" font-size="11.00" fill="#1a1a1a">Artist</text>
</g>
<!-- adversary -->
<g id="node11" class="node">
<title>adversary</title>
<path fill="#ffffff" stroke="#c7bfb1" d="M814.34,-265.6C814.34,-265.6 763.66,-265.6 763.66,-265.6 757.66,-265.6 751.66,-259.6 751.66,-253.6 751.66,-253.6 751.66,-241.6 751.66,-241.6 751.66,-235.6 757.66,-229.6 763.66,-229.6 763.66,-229.6 814.34,-229.6 814.34,-229.6 820.34,-229.6 826.34,-235.6 826.34,-241.6 826.34,-241.6 826.34,-253.6 826.34,-253.6 826.34,-259.6 820.34,-265.6 814.34,-265.6"/>
<text xml:space="preserve" text-anchor="middle" x="789" y="-243.15" font-family="EB Garamond" font-size="11.00" fill="#1a1a1a">Adversary</text>
</g>
<!-- conscience -->
<g id="node12" class="node">
<title>conscience</title>
<path fill="#ffffff" stroke="#c7bfb1" d="M928.09,-265.6C928.09,-265.6 869.91,-265.6 869.91,-265.6 863.91,-265.6 857.91,-259.6 857.91,-253.6 857.91,-253.6 857.91,-241.6 857.91,-241.6 857.91,-235.6 863.91,-229.6 869.91,-229.6 869.91,-229.6 928.09,-229.6 928.09,-229.6 934.09,-229.6 940.09,-235.6 940.09,-241.6 940.09,-241.6 940.09,-253.6 940.09,-253.6 940.09,-259.6 934.09,-265.6 928.09,-265.6"/>
<text xml:space="preserve" text-anchor="middle" x="899" y="-243.15" font-family="EB Garamond" font-size="11.00" fill="#1a1a1a">Conscience</text>
</g>
<!-- saul -->
<g id="node13" class="node">
<title>saul</title>
<path fill="#ffffff" stroke="#c7bfb1" d="M1057.96,-265.6C1057.96,-265.6 984.04,-265.6 984.04,-265.6 978.04,-265.6 972.04,-259.6 972.04,-253.6 972.04,-253.6 972.04,-241.6 972.04,-241.6 972.04,-235.6 978.04,-229.6 984.04,-229.6 984.04,-229.6 1057.96,-229.6 1057.96,-229.6 1063.96,-229.6 1069.96,-235.6 1069.96,-241.6 1069.96,-241.6 1069.96,-253.6 1069.96,-253.6 1069.96,-259.6 1063.96,-265.6 1057.96,-265.6"/>
<text xml:space="preserve" text-anchor="middle" x="1021" y="-243.15" font-family="EB Garamond" font-size="11.00" fill="#1a1a1a">Saul Goodman</text>
</g>
<!-- medchem -->
<g id="node14" class="node">
<title>medchem</title>
<path fill="#ffffff" stroke="#c7bfb1" d="M1169.59,-266.8C1169.59,-266.8 1114.41,-266.8 1114.41,-266.8 1108.41,-266.8 1102.41,-260.8 1102.41,-254.8 1102.41,-254.8 1102.41,-240.4 1102.41,-240.4 1102.41,-234.4 1108.41,-228.4 1114.41,-228.4 1114.41,-228.4 1169.59,-228.4 1169.59,-228.4 1175.59,-228.4 1181.59,-234.4 1181.59,-240.4 1181.59,-240.4 1181.59,-254.8 1181.59,-254.8 1181.59,-260.8 1175.59,-266.8 1169.59,-266.8"/>
<text xml:space="preserve" text-anchor="middle" x="1142" y="-249.15" font-family="EB Garamond" font-size="11.00" fill="#1a1a1a">MedChem</text>
<text xml:space="preserve" text-anchor="middle" x="1142" y="-237.15" font-family="EB Garamond" font-size="11.00" fill="#1a1a1a">(chemistry)</text>
</g>
<!-- segmenter -->
<g id="node15" class="node">
<title>segmenter</title>
<path fill="#ffffff" stroke="#c7bfb1" d="M1280.59,-266.8C1280.59,-266.8 1225.41,-266.8 1225.41,-266.8 1219.41,-266.8 1213.41,-260.8 1213.41,-254.8 1213.41,-254.8 1213.41,-240.4 1213.41,-240.4 1213.41,-234.4 1219.41,-228.4 1225.41,-228.4 1225.41,-228.4 1280.59,-228.4 1280.59,-228.4 1286.59,-228.4 1292.59,-234.4 1292.59,-240.4 1292.59,-240.4 1292.59,-254.8 1292.59,-254.8 1292.59,-260.8 1286.59,-266.8 1280.59,-266.8"/>
<text xml:space="preserve" text-anchor="middle" x="1253" y="-249.15" font-family="EB Garamond" font-size="11.00" fill="#1a1a1a">Segmenter</text>
<text xml:space="preserve" text-anchor="middle" x="1253" y="-237.15" font-family="EB Garamond" font-size="11.00" fill="#1a1a1a">(imaging)</text>
</g>
<!-- cohort -->
<g id="node16" class="node">
<title>cohort</title>
<path fill="#ffffff" stroke="#c7bfb1" d="M1377.46,-266.8C1377.46,-266.8 1336.54,-266.8 1336.54,-266.8 1330.54,-266.8 1324.54,-260.8 1324.54,-254.8 1324.54,-254.8 1324.54,-240.4 1324.54,-240.4 1324.54,-234.4 1330.54,-228.4 1336.54,-228.4 1336.54,-228.4 1377.46,-228.4 1377.46,-228.4 1383.46,-228.4 1389.46,-234.4 1389.46,-240.4 1389.46,-240.4 1389.46,-254.8 1389.46,-254.8 1389.46,-260.8 1383.46,-266.8 1377.46,-266.8"/>
<text xml:space="preserve" text-anchor="middle" x="1357" y="-249.15" font-family="EB Garamond" font-size="11.00" fill="#1a1a1a">Cohort</text>
<text xml:space="preserve" text-anchor="middle" x="1357" y="-237.15" font-family="EB Garamond" font-size="11.00" fill="#1a1a1a">(clinical)</text>
</g>
<!-- lab_mgmt -->
<g id="node19" class="node">
<title>lab_mgmt</title>
<path fill="#ffffff" stroke="#c7bfb1" d="M1267.96,-54.4C1267.96,-54.4 1134.04,-54.4 1134.04,-54.4 1128.04,-54.4 1122.04,-48.4 1122.04,-42.4 1122.04,-42.4 1122.04,-28 1122.04,-28 1122.04,-22 1128.04,-16 1134.04,-16 1134.04,-16 1267.96,-16 1267.96,-16 1273.96,-16 1279.96,-22 1279.96,-28 1279.96,-28 1279.96,-42.4 1279.96,-42.4 1279.96,-48.4 1273.96,-54.4 1267.96,-54.4"/>
<text xml:space="preserve" text-anchor="middle" x="1201" y="-36.75" font-family="EB Garamond" font-size="11.00" fill="#1a1a1a">lab&#45;mgmt repo</text>
<text xml:space="preserve" text-anchor="middle" x="1201" y="-24.75" font-family="EB Garamond" font-size="11.00" fill="#1a1a1a">(charter, MEMBERS, audit)</text>
</g>
<!-- proj1&#45;&gt;lab_mgmt -->
<g id="edge8" class="edge">
<title>proj1&#45;&gt;lab_mgmt</title>
<path fill="none" stroke="#5b5b5b" d="M1517.94,-227.98C1517.94,-175.35 1517.94,-35 1517.94,-35 1517.94,-35 1288.67,-35 1288.67,-35"/>
<polygon fill="#5b5b5b" stroke="#5b5b5b" points="1288.67,-32.55 1281.67,-35 1288.67,-37.45 1288.67,-32.55"/>
<text xml:space="preserve" text-anchor="middle" x="1068.25" y="-126.88" font-family="Courier Prime" font-size="9.00" fill="#5b5b5b">charter</text>
</g>
<!-- proj_repo -->
<g id="node21" class="node">
<title>proj_repo</title>
<path fill="#ffffff" stroke="#c7bfb1" d="M1791.84,-149.75C1791.84,-149.75 1672.16,-149.75 1672.16,-149.75 1666.16,-149.75 1660.16,-143.75 1660.16,-137.75 1660.16,-137.75 1660.16,-123.35 1660.16,-123.35 1660.16,-117.35 1666.16,-111.35 1672.16,-111.35 1672.16,-111.35 1791.84,-111.35 1791.84,-111.35 1797.84,-111.35 1803.84,-117.35 1803.84,-123.35 1803.84,-123.35 1803.84,-137.75 1803.84,-137.75 1803.84,-143.75 1797.84,-149.75 1791.84,-149.75"/>
<text xml:space="preserve" text-anchor="middle" x="1732" y="-132.1" font-family="EB Garamond" font-size="11.00" fill="#1a1a1a">project repo</text>
<text xml:space="preserve" text-anchor="middle" x="1732" y="-120.1" font-family="EB Garamond" font-size="11.00" fill="#1a1a1a">(per&#45;project, GH&#45;hosted)</text>
</g>
<!-- proj1&#45;&gt;proj_repo -->
<g id="edge9" class="edge">
<title>proj1&#45;&gt;proj_repo</title>
<path fill="none" stroke="#5b5b5b" d="M1542.93,-227.94C1542.93,-224.5 1542.93,-222 1542.93,-222 1542.93,-222 1683.69,-222 1683.69,-222 1683.69,-222 1683.69,-158.46 1683.69,-158.46"/>
<polygon fill="#5b5b5b" stroke="#5b5b5b" points="1686.14,-158.46 1683.69,-151.46 1681.24,-158.46 1686.14,-158.46"/>
<text xml:space="preserve" text-anchor="middle" x="1698.25" y="-187.7" font-family="Courier Prime" font-size="9.00" fill="#5b5b5b">code/data</text>
</g>
<!-- lab_vm -->
<g id="node22" class="node">
<title>lab_vm</title>
<path fill="#ffffff" stroke="#c7bfb1" d="M1489.96,-148.55C1489.96,-148.55 1314.04,-148.55 1314.04,-148.55 1308.04,-148.55 1302.04,-142.55 1302.04,-136.55 1302.04,-136.55 1302.04,-124.55 1302.04,-124.55 1302.04,-118.55 1308.04,-112.55 1314.04,-112.55 1314.04,-112.55 1489.96,-112.55 1489.96,-112.55 1495.96,-112.55 1501.96,-118.55 1501.96,-124.55 1501.96,-124.55 1501.96,-136.55 1501.96,-136.55 1501.96,-142.55 1495.96,-148.55 1489.96,-148.55"/>
<text xml:space="preserve" text-anchor="middle" x="1402" y="-126.1" font-family="EB Garamond" font-size="11.00" fill="#1a1a1a">/data/lab_vm/{raw,refined}/&lt;project&gt;</text>
</g>
<!-- proj1&#45;&gt;lab_vm -->
<g id="edge10" class="edge">
<title>proj1&#45;&gt;lab_vm</title>
<path fill="none" stroke="#5b5b5b" d="M1461.5,-228.01C1461.5,-228.01 1461.5,-157.56 1461.5,-157.56"/>
<polygon fill="#5b5b5b" stroke="#5b5b5b" points="1463.95,-157.56 1461.5,-150.56 1459.05,-157.56 1463.95,-157.56"/>
<text xml:space="preserve" text-anchor="middle" x="1450.12" y="-187.7" font-family="Courier Prime" font-size="9.00" fill="#5b5b5b">raw / refined</text>
</g>
<!-- vault -->
<g id="node23" class="node">
<title>vault</title>
<path fill="#ffffff" stroke="#c7bfb1" d="M1616.09,-149.75C1616.09,-149.75 1545.91,-149.75 1545.91,-149.75 1539.91,-149.75 1533.91,-143.75 1533.91,-137.75 1533.91,-137.75 1533.91,-123.35 1533.91,-123.35 1533.91,-117.35 1539.91,-111.35 1545.91,-111.35 1545.91,-111.35 1616.09,-111.35 1616.09,-111.35 1622.09,-111.35 1628.09,-117.35 1628.09,-123.35 1628.09,-123.35 1628.09,-137.75 1628.09,-137.75 1628.09,-143.75 1622.09,-149.75 1616.09,-149.75"/>
<text xml:space="preserve" text-anchor="middle" x="1581" y="-132.1" font-family="EB Garamond" font-size="11.00" fill="#1a1a1a">Obsidian vault</text>
<text xml:space="preserve" text-anchor="middle" x="1581" y="-120.1" font-family="EB Garamond" font-size="11.00" fill="#1a1a1a">(one per user)</text>
</g>
<!-- proj1&#45;&gt;vault -->
<g id="edge11" class="edge">
<title>proj1&#45;&gt;vault</title>
<path fill="none" stroke="#5b5b5b" d="M1551.94,-228.01C1551.94,-228.01 1551.94,-158.72 1551.94,-158.72"/>
<polygon fill="#5b5b5b" stroke="#5b5b5b" points="1554.4,-158.72 1551.95,-151.72 1549.5,-158.72 1554.4,-158.72"/>
<text xml:space="preserve" text-anchor="middle" x="1583.62" y="-187.7" font-family="Courier Prime" font-size="9.00" fill="#5b5b5b">lab notebook</text>
</g>
<!-- proj2 -->
<g id="node18" class="node">
<title>proj2</title>
<path fill="#ffffff" stroke="#c7bfb1" d="M1695.21,-266.8C1695.21,-266.8 1604.79,-266.8 1604.79,-266.8 1598.79,-266.8 1592.79,-260.8 1592.79,-254.8 1592.79,-254.8 1592.79,-240.4 1592.79,-240.4 1592.79,-234.4 1598.79,-228.4 1604.79,-228.4 1604.79,-228.4 1695.21,-228.4 1695.21,-228.4 1701.21,-228.4 1707.21,-234.4 1707.21,-240.4 1707.21,-240.4 1707.21,-254.8 1707.21,-254.8 1707.21,-260.8 1701.21,-266.8 1695.21,-266.8"/>
<text xml:space="preserve" text-anchor="middle" x="1650" y="-249.15" font-family="EB Garamond" font-size="11.00" fill="#1a1a1a">drug_discovery_litl</text>
<text xml:space="preserve" text-anchor="middle" x="1650" y="-237.15" font-family="EB Garamond" font-size="11.00" fill="#1a1a1a">(g1 + g4)</text>
</g>
<!-- registry&#45;&gt;lab_mgmt -->
<g id="edge13" class="edge">
<title>registry&#45;&gt;lab_mgmt</title>
<path fill="none" stroke="#5b5b5b" stroke-dasharray="5,2" d="M1195.94,-111.25C1195.94,-111.25 1195.94,-63.31 1195.94,-63.31"/>
<polygon fill="#5b5b5b" stroke="#5b5b5b" points="1198.39,-63.31 1195.94,-56.31 1193.49,-63.31 1198.39,-63.31"/>
<text xml:space="preserve" text-anchor="middle" x="1213.25" y="-82.8" font-family="Courier Prime" font-size="9.00" fill="#5b5b5b">points to</text>
</g>
<!-- github -->
<g id="node24" class="node">
<title>github</title>
<path fill="#eef2ff" stroke="#c7bfb1" d="M1090.21,-56.8C1090.21,-59.45 1060.53,-61.6 1024,-61.6 987.47,-61.6 957.79,-59.45 957.79,-56.8 957.79,-56.8 957.79,-13.6 957.79,-13.6 957.79,-10.95 987.47,-8.8 1024,-8.8 1060.53,-8.8 1090.21,-10.95 1090.21,-13.6 1090.21,-13.6 1090.21,-56.8 1090.21,-56.8"/>
<path fill="none" stroke="#c7bfb1" d="M1090.21,-56.8C1090.21,-54.15 1060.53,-52 1024,-52 987.47,-52 957.79,-54.15 957.79,-56.8"/>
<text xml:space="preserve" text-anchor="middle" x="1024" y="-36.75" font-family="EB Garamond" font-size="11.00" fill="#1a1a1a">GitHub orgs</text>
<text xml:space="preserve" text-anchor="middle" x="1024" y="-24.75" font-family="EB Garamond" font-size="11.00" fill="#1a1a1a">hallettmiket / &lt;centre&gt;</text>
</g>
<!-- proj_repo&#45;&gt;github -->
<g id="edge12" class="edge">
<title>proj_repo&#45;&gt;github</title>
<path fill="none" stroke="#5b5b5b" d="M1732,-111.11C1732,-89.62 1732,-58 1732,-58 1732,-58 1099.12,-58 1099.12,-58"/>
<polygon fill="#5b5b5b" stroke="#5b5b5b" points="1099.12,-55.55 1092.12,-58 1099.12,-60.45 1099.12,-55.55"/>
<text xml:space="preserve" text-anchor="middle" x="1118.12" y="-82.8" font-family="Courier Prime" font-size="9.00" fill="#5b5b5b">push</text>
</g>
<!-- slack -->
<g id="node25" class="node">
<title>slack</title>
<path fill="#eef2ff" stroke="#c7bfb1" d="M446.46,-417.3C446.46,-419.95 422.5,-422.1 393,-422.1 363.5,-422.1 339.54,-419.95 339.54,-417.3 339.54,-417.3 339.54,-374.1 339.54,-374.1 339.54,-371.45 363.5,-369.3 393,-369.3 422.5,-369.3 446.46,-371.45 446.46,-374.1 446.46,-374.1 446.46,-417.3 446.46,-417.3"/>
<path fill="none" stroke="#c7bfb1" d="M446.46,-417.3C446.46,-414.65 422.5,-412.5 393,-412.5 363.5,-412.5 339.54,-414.65 339.54,-417.3"/>
<text xml:space="preserve" text-anchor="middle" x="393" y="-397.25" font-family="EB Garamond" font-size="11.00" fill="#1a1a1a">Slack workspace</text>
<text xml:space="preserve" text-anchor="middle" x="393" y="-385.25" font-family="EB Garamond" font-size="11.00" fill="#1a1a1a">(mirror + distill)</text>
</g>
<!-- slack&#45;&gt;oracle -->
<g id="edge16" class="edge">
<title>slack&#45;&gt;oracle</title>
<path fill="none" stroke="#5b5b5b" stroke-dasharray="1,5" d="M394.57,-368.88C394.57,-368.88 394.57,-274.33 394.57,-274.33"/>
<polygon fill="#5b5b5b" stroke="#5b5b5b" points="397.02,-274.33 394.57,-267.33 392.12,-274.33 397.02,-274.33"/>
<text xml:space="preserve" text-anchor="middle" x="405" y="-340.75" font-family="Courier Prime" font-size="9.00" fill="#5b5b5b">mirror</text>
</g>
<!-- mcp -->
<g id="node26" class="node">
<title>mcp</title>
<path fill="#eef2ff" stroke="#c7bfb1" d="M659.21,-417.3C659.21,-419.95 618.78,-422.1 569,-422.1 519.22,-422.1 478.79,-419.95 478.79,-417.3 478.79,-417.3 478.79,-374.1 478.79,-374.1 478.79,-371.45 519.22,-369.3 569,-369.3 618.78,-369.3 659.21,-371.45 659.21,-374.1 659.21,-374.1 659.21,-417.3 659.21,-417.3"/>
<path fill="none" stroke="#c7bfb1" d="M659.21,-417.3C659.21,-414.65 618.78,-412.5 569,-412.5 519.22,-412.5 478.79,-414.65 478.79,-417.3"/>
<text xml:space="preserve" text-anchor="middle" x="569" y="-397.25" font-family="EB Garamond" font-size="11.00" fill="#1a1a1a">MCP servers</text>
<text xml:space="preserve" text-anchor="middle" x="569" y="-385.25" font-family="EB Garamond" font-size="11.00" fill="#1a1a1a">ClinicalTrials / PubMed / bioRxiv</text>
</g>
<!-- mcp&#45;&gt;bookworm -->
<g id="edge17" class="edge">
<title>mcp&#45;&gt;bookworm</title>
<path fill="none" stroke="#5b5b5b" stroke-dasharray="1,5" d="M501.31,-368.88C501.31,-368.88 501.31,-274.33 501.31,-274.33"/>
<polygon fill="#5b5b5b" stroke="#5b5b5b" points="503.76,-274.33 501.31,-267.33 498.86,-274.33 503.76,-274.33"/>
<text xml:space="preserve" text-anchor="middle" x="584.38" y="-340.75" font-family="Courier Prime" font-size="9.00" fill="#5b5b5b">queries</text>
</g>
<!-- vscode -->
<g id="node27" class="node">
<title>vscode</title>
<path fill="#fff1db" stroke="#c7bfb1" d="M1958.32,-253.35C1958.32,-253.35 1921.96,-273.21 1921.96,-273.21 1916.69,-276.08 1905.43,-278.96 1899.43,-278.96 1899.43,-278.96 1808.57,-278.96 1808.57,-278.96 1802.57,-278.96 1791.31,-276.08 1786.04,-273.21 1786.04,-273.21 1749.68,-253.35 1749.68,-253.35 1744.41,-250.48 1744.41,-244.73 1749.68,-241.85 1749.68,-241.85 1786.04,-222 1786.04,-222 1791.31,-219.13 1802.57,-216.25 1808.57,-216.25 1808.57,-216.25 1899.43,-216.25 1899.43,-216.25 1905.43,-216.25 1916.69,-219.13 1921.96,-222 1921.96,-222 1958.32,-241.85 1958.32,-241.85 1963.59,-244.73 1963.59,-250.48 1958.32,-253.35"/>
<text xml:space="preserve" text-anchor="middle" x="1854" y="-249.15" font-family="EB Garamond" font-size="11.00" fill="#1a1a1a">VSCode + CC sessions</text>
<text xml:space="preserve" text-anchor="middle" x="1854" y="-237.15" font-family="EB Garamond" font-size="11.00" fill="#1a1a1a">(per project)</text>
</g>
<!-- vscode&#45;&gt;proj_repo -->
<g id="edge15" class="edge">
<title>vscode&#45;&gt;proj_repo</title>
<path fill="none" stroke="#5b5b5b" stroke-dasharray="1,5" d="M1771.49,-229.57C1771.49,-229.57 1771.49,-158.48 1771.49,-158.48"/>
<polygon fill="#5b5b5b" stroke="#5b5b5b" points="1773.94,-158.48 1771.49,-151.48 1769.04,-158.48 1773.94,-158.48"/>
<text xml:space="preserve" text-anchor="middle" x="1861.5" y="-187.7" font-family="Courier Prime" font-size="9.00" fill="#5b5b5b">dev</text>
</g>
</g>
</svg>
